<?xml version="1.0" standalone="no"?>
<!DOCTYPE svg PUBLIC "-//W3C//DTD SVG 20010904//EN"
 "http://www.w3.org/TR/2001/REC-SVG-20010904/DTD/svg10.dtd">
<svg version="1.0" xmlns="http://www.w3.org/2000/svg"
 width="621.000000pt" height="342.000000pt" viewBox="0 0 621.000000 342.000000"
 preserveAspectRatio="xMidYMid meet">
<metadata>
Created by potrace 1.16, written by Peter Selinger 2001-2019
</metadata>
<g transform="translate(0.000000,342.000000) scale(0.100000,-0.100000)"
fill="#000000" stroke="none">
<path d="M1155 2822 l-270 -227 -205 -354 c-113 -196 -220 -381 -237 -413
l-33 -58 213 0 214 0 73 158 c40 86 121 261 180 387 231 493 340 729 337 731
-1 1 -124 -100 -272 -224z"/>
<path d="M1482 2883 c-13 -38 -64 -179 -113 -314 -49 -135 -89 -251 -89 -257
0 -6 101 -131 225 -278 124 -147 222 -270 219 -273 -3 -3 -186 -38 -407 -78
l-402 -71 688 -1 689 -1 -20 33 c-15 24 -636 1097 -741 1279 -9 16 -18 28 -21
28 -3 0 -16 -30 -28 -67z"/>
<path d="M2715 2378 c-83 -218 -220 -577 -232 -606 -4 -10 7 -12 48 -10 l54 3
41 115 42 115 185 3 185 2 26 -67 c14 -38 33 -90 43 -118 l19 -50 53 -3 c41
-2 52 0 48 10 -33 84 -258 667 -285 741 l-36 97 -51 0 -51 0 -89 -232z m217
-86 c39 -106 68 -195 66 -198 -3 -2 -70 -3 -150 -2 l-145 3 69 195 c39 107 72
202 75 210 5 13 6 13 10 0 3 -8 37 -102 75 -208z"/>
<path d="M4795 2366 c-34 -15 -65 -48 -88 -91 l-16 -30 -1 63 0 62 -45 0 -45
0 0 -306 0 -305 43 3 42 3 5 205 c5 194 6 207 29 247 39 69 106 94 176 67 14
-6 16 0 13 42 l-3 49 -40 2 c-22 2 -53 -3 -70 -11z"/>
<path d="M5144 2361 c-111 -50 -184 -196 -169 -335 13 -121 65 -204 155 -252
56 -30 209 -26 275 6 47 24 50 28 53 67 l3 42 -47 -26 c-67 -38 -183 -44 -241
-14 -61 31 -108 109 -101 167 l3 29 208 3 207 2 0 76 c0 116 -42 194 -124 233
-60 27 -163 29 -222 2z m188 -77 c31 -16 63 -71 73 -127 l7 -37 -172 0 -172 0
6 32 c8 41 48 103 81 124 53 35 119 37 177 8z"/>
<path d="M3310 2330 l0 -40 160 0 c88 0 160 -3 160 -6 0 -3 -13 -23 -29 -43
-83 -105 -331 -456 -331 -467 0 -12 46 -14 250 -14 l250 0 0 40 0 40 -180 2
-181 3 181 249 c99 137 180 255 180 263 0 10 -44 13 -230 13 l-230 0 0 -40z"/>
<path d="M3892 2138 c3 -221 4 -235 27 -281 31 -65 82 -97 160 -104 80 -7 139
15 186 70 l35 41 0 -52 0 -52 45 0 45 0 0 299 0 299 -45 4 -45 3 0 -195 c0
-186 -1 -198 -25 -247 -31 -69 -70 -93 -148 -93 -53 0 -62 3 -92 33 -18 18
-38 51 -44 72 -6 23 -11 125 -11 238 l0 197 -46 0 -46 0 4 -232z"/>
<path d="M657 1450 c-162 -41 -256 -178 -245 -359 8 -132 67 -226 172 -273 71
-31 206 -31 289 1 l57 22 0 150 0 149 -105 0 -105 0 0 -30 0 -29 73 -3 72 -3
3 -92 3 -92 -33 -17 c-50 -26 -171 -24 -224 3 -93 49 -141 150 -131 274 9 103
58 178 147 225 51 27 179 25 243 -3 l47 -22 0 39 c0 34 -3 39 -32 50 -45 15
-185 21 -231 10z"/>
<path d="M5305 1391 c-16 -6 -21 -20 -25 -67 l-5 -59 -40 -5 c-32 -4 -40 -9
-40 -25 0 -16 8 -21 40 -25 l40 -5 5 -175 c3 -96 9 -183 13 -192 10 -20 67
-48 99 -48 49 0 68 11 68 39 0 25 -3 26 -38 23 -29 -3 -42 1 -57 18 -18 20
-20 37 -20 179 l0 156 58 3 c53 3 57 5 57 27 0 22 -4 24 -57 27 l-58 3 0 68
c0 68 -3 72 -40 58z"/>
<path d="M1174 1251 c-85 -39 -132 -135 -121 -252 12 -136 116 -221 249 -206
129 16 203 108 200 253 -1 99 -47 179 -119 210 -47 20 -159 17 -209 -5z m193
-57 c44 -33 63 -81 63 -159 0 -84 -20 -129 -70 -163 -29 -20 -45 -23 -93 -20
-46 4 -63 10 -88 34 -41 38 -59 82 -59 144 0 83 36 149 95 177 40 18 120 11
152 -13z"/>
<path d="M2148 1241 c-122 -78 -141 -305 -32 -400 60 -53 169 -64 260 -26 28
11 34 19 34 44 l0 30 -46 -21 c-36 -15 -61 -19 -106 -16 -50 4 -63 9 -93 38
-32 31 -59 101 -48 123 2 4 79 7 170 7 l166 0 -7 57 c-15 131 -67 186 -181
191 -64 3 -74 1 -117 -27z m169 -41 c38 -23 50 -43 55 -90 l3 -35 -127 -3
c-127 -3 -128 -2 -128 20 0 33 35 85 72 108 42 25 84 25 125 0z"/>
<path d="M2701 1254 c-12 -9 -31 -30 -42 -48 l-19 -31 0 43 c0 41 0 42 -35 42
l-35 0 0 -230 0 -230 35 0 35 0 0 158 c0 142 2 160 21 192 30 48 48 59 97 60
40 0 42 1 42 30 0 28 -2 30 -38 30 -21 0 -48 -7 -61 -16z"/>
<path d="M3045 1261 c-11 -5 -35 -24 -53 -42 l-32 -33 0 37 c0 36 -1 37 -35
37 l-35 0 0 -230 0 -230 35 0 35 0 0 150 c0 163 8 197 53 239 16 14 43 25 69
28 37 4 49 1 75 -21 42 -35 53 -91 53 -261 l0 -135 30 0 30 0 0 177 c0 198
-11 242 -69 276 -31 18 -119 22 -156 8z"/>
<path d="M3555 1250 c-16 -10 -37 -30 -47 -42 l-18 -23 0 38 c0 36 -1 37 -35
37 l-35 0 0 -230 0 -230 35 0 35 0 0 155 c0 136 3 161 20 195 34 66 97 87 156
51 44 -27 54 -73 54 -250 l0 -152 30 3 30 3 2 157 c3 156 3 156 33 200 37 52
85 69 135 48 53 -22 60 -49 60 -240 l0 -170 36 0 36 0 -4 188 c-2 156 -6 192
-21 219 -47 87 -206 85 -263 -2 l-17 -26 -20 31 c-11 17 -32 37 -48 45 -41 21
-118 19 -154 -5z"/>
<path d="M4325 1256 c-41 -18 -89 -74 -110 -130 -13 -34 -16 -64 -13 -120 6
-94 39 -156 101 -188 54 -29 152 -31 220 -5 41 16 47 22 47 48 0 34 2 34 -41
12 -50 -25 -136 -28 -179 -6 -37 19 -80 89 -80 130 l0 23 165 0 165 0 0 43 c0
88 -38 160 -101 192 -35 18 -133 19 -174 1z m168 -74 c22 -22 30 -40 31 -68
l1 -39 -119 -3 c-70 -1 -123 1 -129 7 -17 17 33 101 73 123 48 27 104 19 143
-20z"/>
<path d="M4875 1261 c-11 -5 -35 -24 -53 -42 l-32 -33 0 37 c0 36 -1 37 -35
37 l-35 0 0 -230 0 -230 34 0 35 0 3 170 3 170 35 35 c58 58 138 57 177 -2 15
-22 19 -56 23 -198 l5 -170 33 -3 32 -3 0 168 c0 92 -5 185 -10 205 -6 20 -26
50 -46 67 -30 27 -42 31 -92 30 -31 0 -66 -4 -77 -8z"/>
<path d="M1570 1257 c0 -3 30 -83 66 -179 36 -95 75 -197 86 -225 18 -49 22
-53 53 -53 l33 0 87 218 c48 119 90 223 92 230 4 10 -4 13 -32 10 l-37 -3 -64
-175 c-35 -96 -64 -183 -64 -192 0 -9 -4 -20 -10 -23 -5 -3 -10 2 -10 12 0 10
-29 99 -64 198 l-63 180 -37 3 c-20 2 -36 1 -36 -1z"/>
</g>
</svg>
