<svg width="445" height="159" viewBox="0 0 445 159" fill="none" xmlns="http://www.w3.org/2000/svg">
<rect width="444.19" height="159" fill="white"/>
<g clip-path="url(#clip0_440_6399)">
<path d="M25.238 32.8096H123.667V131.238H25.238V32.8096Z" fill="#F3F3F3"/>
<path d="M29.5177 37.0879H72.3127V79.8829H29.5177V37.0879Z" fill="#F35325"/>
<path d="M76.5922 37.0879H119.387V79.8829H76.5922V37.0879Z" fill="#81BC06"/>
<path d="M29.5177 84.1631H72.3127V126.958H29.5177V84.1631Z" fill="#05A6F0"/>
<path d="M76.5922 84.1631H119.387V126.958H76.5922V84.1631Z" fill="#FFBA08"/>
</g>
<path d="M154.404 52.7617H152.074L158.814 34.4067H161.108L167.848 52.7617H165.517L160.032 37.3106H159.889L154.404 52.7617ZM155.264 45.5918H164.657V47.5635H155.264V45.5918ZM179.951 38.9955L174.861 52.7617H172.71L167.619 38.9955H169.914L173.714 49.9655H173.857L177.657 38.9955H179.951ZM186.375 53.0844C185.503 53.0844 184.711 52.9201 184 52.5914C183.289 52.2568 182.725 51.7759 182.306 51.1485C181.888 50.5151 181.679 49.7504 181.679 48.8541C181.679 48.0654 181.834 47.4261 182.145 46.9362C182.456 46.4402 182.871 46.0519 183.391 45.7711C183.911 45.4902 184.484 45.2811 185.111 45.1437C185.745 45.0003 186.381 44.8868 187.02 44.8031C187.857 44.6956 188.535 44.6149 189.055 44.5611C189.581 44.5014 189.963 44.4028 190.202 44.2654C190.447 44.1279 190.57 43.889 190.57 43.5484V43.4767C190.57 42.5924 190.328 41.9053 189.844 41.4153C189.366 40.9254 188.64 40.6804 187.666 40.6804C186.656 40.6804 185.864 40.9015 185.291 41.3436C184.717 41.7858 184.314 42.2578 184.081 42.7597L182.073 42.0427C182.432 41.2062 182.91 40.5549 183.507 40.0889C184.111 39.6169 184.768 39.2883 185.479 39.103C186.196 38.9118 186.901 38.8162 187.594 38.8162C188.036 38.8162 188.544 38.87 189.118 38.9776C189.697 39.0791 190.256 39.2912 190.794 39.6139C191.337 39.9365 191.788 40.4235 192.147 41.0748C192.505 41.726 192.685 42.5984 192.685 43.6918V52.7617H190.57V50.8975H190.462C190.319 51.1963 190.08 51.5159 189.745 51.8565C189.41 52.1971 188.965 52.4869 188.41 52.7259C187.854 52.9649 187.176 53.0844 186.375 53.0844ZM186.698 51.1843C187.534 51.1843 188.239 51.02 188.813 50.6914C189.393 50.3628 189.829 49.9386 190.121 49.4187C190.42 48.8989 190.57 48.3522 190.57 47.7786V45.8428C190.48 45.9503 190.283 46.0489 189.978 46.1385C189.679 46.2222 189.333 46.2968 188.938 46.3626C188.55 46.4223 188.171 46.4761 187.8 46.5239C187.436 46.5657 187.14 46.6016 186.913 46.6314C186.363 46.7031 185.849 46.8197 185.371 46.981C184.899 47.1363 184.517 47.3723 184.224 47.689C183.937 47.9997 183.794 48.4239 183.794 48.9617C183.794 49.6966 184.066 50.2522 184.61 50.6287C185.159 50.9991 185.855 51.1843 186.698 51.1843ZM196.545 52.7617V38.9955H198.66V52.7617H196.545ZM197.621 36.7011C197.208 36.7011 196.853 36.5607 196.554 36.2799C196.261 35.9991 196.115 35.6615 196.115 35.2671C196.115 34.8728 196.261 34.5352 196.554 34.2544C196.853 33.9736 197.208 33.8331 197.621 33.8331C198.033 33.8331 198.386 33.9736 198.678 34.2544C198.977 34.5352 199.126 34.8728 199.126 35.2671C199.126 35.6615 198.977 35.9991 198.678 36.2799C198.386 36.5607 198.033 36.7011 197.621 36.7011ZM204.65 34.4067V52.7617H202.534V34.4067H204.65ZM212.575 53.0844C211.702 53.0844 210.91 52.9201 210.199 52.5914C209.488 52.2568 208.924 51.7759 208.506 51.1485C208.087 50.5151 207.878 49.7504 207.878 48.8541C207.878 48.0654 208.034 47.4261 208.344 46.9362C208.655 46.4402 209.07 46.0519 209.59 45.7711C210.11 45.4902 210.683 45.2811 211.311 45.1437C211.944 45.0003 212.58 44.8868 213.22 44.8031C214.056 44.6956 214.734 44.6149 215.254 44.5611C215.78 44.5014 216.162 44.4028 216.401 44.2654C216.646 44.1279 216.769 43.889 216.769 43.5484V43.4767C216.769 42.5924 216.527 41.9053 216.043 41.4153C215.565 40.9254 214.839 40.6804 213.865 40.6804C212.855 40.6804 212.064 40.9015 211.49 41.3436C210.916 41.7858 210.513 42.2578 210.28 42.7597L208.273 42.0427C208.631 41.2062 209.109 40.5549 209.707 40.0889C210.31 39.6169 210.967 39.2883 211.678 39.103C212.395 38.9118 213.1 38.8162 213.793 38.8162C214.236 38.8162 214.743 38.87 215.317 38.9776C215.897 39.0791 216.455 39.2912 216.993 39.6139C217.537 39.9365 217.988 40.4235 218.346 41.0748C218.705 41.726 218.884 42.5984 218.884 43.6918V52.7617H216.769V50.8975H216.661C216.518 51.1963 216.279 51.5159 215.944 51.8565C215.61 52.1971 215.165 52.4869 214.609 52.7259C214.053 52.9649 213.375 53.0844 212.575 53.0844ZM212.897 51.1843C213.734 51.1843 214.439 51.02 215.012 50.6914C215.592 50.3628 216.028 49.9386 216.321 49.4187C216.62 48.8989 216.769 48.3522 216.769 47.7786V45.8428C216.679 45.9503 216.482 46.0489 216.177 46.1385C215.879 46.2222 215.532 46.2968 215.138 46.3626C214.749 46.4223 214.37 46.4761 214 46.5239C213.635 46.5657 213.339 46.6016 213.112 46.6314C212.563 46.7031 212.049 46.8197 211.571 46.981C211.099 47.1363 210.716 47.3723 210.424 47.689C210.137 47.9997 209.993 48.4239 209.993 48.9617C209.993 49.6966 210.265 50.2522 210.809 50.6287C211.359 50.9991 212.055 51.1843 212.897 51.1843ZM223.031 52.7617V34.4067H225.146V41.1823H225.326C225.481 40.9433 225.696 40.6386 225.971 40.2681C226.252 39.8917 226.652 39.5571 227.172 39.2644C227.698 38.9656 228.409 38.8162 229.305 38.8162C230.464 38.8162 231.486 39.106 232.37 39.6856C233.254 40.2652 233.945 41.0867 234.44 42.1502C234.936 43.2138 235.184 44.4685 235.184 45.9145C235.184 47.3723 234.936 48.636 234.44 49.7055C233.945 50.7691 233.257 51.5936 232.379 52.1792C231.501 52.7587 230.488 53.0485 229.341 53.0485C228.457 53.0485 227.749 52.9021 227.217 52.6094C226.685 52.3106 226.276 51.973 225.989 51.5966C225.702 51.2142 225.481 50.8975 225.326 50.6466H225.075V52.7617H223.031ZM225.111 45.8786C225.111 46.9182 225.263 47.8354 225.568 48.6301C225.872 49.4187 226.318 50.0372 226.903 50.4853C227.489 50.9274 228.206 51.1485 229.054 51.1485C229.938 51.1485 230.676 50.9155 231.268 50.4494C231.865 49.9774 232.313 49.3441 232.612 48.5494C232.917 47.7488 233.069 46.8585 233.069 45.8786C233.069 44.9107 232.92 44.0383 232.621 43.2616C232.328 42.4789 231.883 41.8605 231.286 41.4064C230.694 40.9463 229.95 40.7163 229.054 40.7163C228.194 40.7163 227.471 40.9343 226.885 41.3705C226.3 41.8007 225.858 42.4042 225.559 43.1809C225.26 43.9517 225.111 44.8509 225.111 45.8786ZM240.535 34.4067V52.7617H238.42V34.4067H240.535ZM250.181 53.0485C248.854 53.0485 247.71 52.7557 246.748 52.1702C245.792 51.5787 245.054 50.7541 244.534 49.6966C244.021 48.633 243.764 47.3962 243.764 45.9862C243.764 44.5761 244.021 43.3333 244.534 42.2578C245.054 41.1763 245.777 40.3339 246.703 39.7304C247.635 39.121 248.723 38.8162 249.966 38.8162C250.683 38.8162 251.391 38.9357 252.09 39.1747C252.789 39.4137 253.425 39.8021 253.999 40.3398C254.572 40.8716 255.029 41.5767 255.37 42.455C255.71 43.3333 255.881 44.4147 255.881 45.6994V46.5956H245.269V44.7673H253.73C253.73 43.9905 253.574 43.2974 253.264 42.688C252.959 42.0785 252.523 41.5976 251.955 41.245C251.394 40.8925 250.73 40.7163 249.966 40.7163C249.123 40.7163 248.394 40.9254 247.779 41.3436C247.169 41.7559 246.7 42.2936 246.372 42.9569C246.043 43.6201 245.879 44.3311 245.879 45.0899V46.3088C245.879 47.3484 246.058 48.2297 246.416 48.9527C246.781 49.6697 247.286 50.2164 247.931 50.5928C248.576 50.9633 249.326 51.1485 250.181 51.1485C250.736 51.1485 251.238 51.0708 251.686 50.9155C252.14 50.7541 252.532 50.5151 252.86 50.1985C253.189 49.8758 253.443 49.4755 253.622 48.9975L255.666 49.5711C255.451 50.2642 255.089 50.8736 254.581 51.3994C254.073 51.9193 253.446 52.3255 252.699 52.6183C251.952 52.9051 251.113 53.0485 250.181 53.0485ZM271.789 53.0485C270.546 53.0485 269.456 52.7528 268.518 52.1612C267.586 51.5697 266.857 50.7422 266.331 49.6787C265.811 48.6151 265.551 47.3723 265.551 45.9503C265.551 44.5163 265.811 43.2646 266.331 42.1951C266.857 41.1255 267.586 40.295 268.518 39.7035C269.456 39.112 270.546 38.8162 271.789 38.8162C273.032 38.8162 274.119 39.112 275.051 39.7035C275.989 40.295 276.718 41.1255 277.238 42.1951C277.764 43.2646 278.027 44.5163 278.027 45.9503C278.027 47.3723 277.764 48.6151 277.238 49.6787C276.718 50.7422 275.989 51.5697 275.051 52.1612C274.119 52.7528 273.032 53.0485 271.789 53.0485ZM271.789 51.1485C272.733 51.1485 273.51 50.9065 274.119 50.4225C274.729 49.9386 275.18 49.3022 275.473 48.5135C275.765 47.7249 275.912 46.8704 275.912 45.9503C275.912 45.0302 275.765 44.1728 275.473 43.3781C275.18 42.5834 274.729 41.9411 274.119 41.4512C273.51 40.9612 272.733 40.7163 271.789 40.7163C270.845 40.7163 270.068 40.9612 269.459 41.4512C268.849 41.9411 268.398 42.5834 268.105 43.3781C267.813 44.1728 267.666 45.0302 267.666 45.9503C267.666 46.8704 267.813 47.7249 268.105 48.5135C268.398 49.3022 268.849 49.9386 269.459 50.4225C270.068 50.9065 270.845 51.1485 271.789 51.1485ZM283.371 44.4805V52.7617H281.256V38.9955H283.299V41.1465H283.478C283.801 40.4474 284.291 39.8857 284.948 39.4615C285.605 39.0313 286.454 38.8162 287.493 38.8162C288.425 38.8162 289.241 39.0074 289.94 39.3898C290.639 39.7663 291.183 40.3398 291.571 41.1106C291.96 41.8754 292.154 42.8433 292.154 44.0144V52.7617H290.039V44.1578C290.039 43.0764 289.758 42.2339 289.196 41.6304C288.635 41.021 287.864 40.7163 286.884 40.7163C286.209 40.7163 285.605 40.8626 285.074 41.1554C284.548 41.4482 284.132 41.8754 283.828 42.437C283.523 42.9987 283.371 43.6798 283.371 44.4805ZM154.252 62.0647H158.957L167.138 82.0401H167.439L175.62 62.0647H180.325V87.7617H176.636V69.1665H176.398L168.819 87.7241H165.758L158.179 69.154H157.941V87.7617H154.252V62.0647ZM185.661 87.7617V68.489H189.413V87.7617H185.661ZM187.556 65.5153C186.903 65.5153 186.343 65.2978 185.874 64.8628C185.414 64.4195 185.184 63.8925 185.184 63.2818C185.184 62.6628 185.414 62.1359 185.874 61.7009C186.343 61.2575 186.903 61.0359 187.556 61.0359C188.208 61.0359 188.764 61.2575 189.224 61.7009C189.693 62.1359 189.927 62.6628 189.927 63.2818C189.927 63.8925 189.693 64.4195 189.224 64.8628C188.764 65.2978 188.208 65.5153 187.556 65.5153ZM202.578 88.1507C200.712 88.1507 199.106 87.7283 197.76 86.8834C196.421 86.0302 195.392 84.8549 194.673 83.3576C193.954 81.8603 193.594 80.1455 193.594 78.2132C193.594 76.2558 193.962 74.5284 194.698 73.0311C195.434 71.5254 196.471 70.3502 197.81 69.5053C199.148 68.6605 200.725 68.238 202.54 68.238C204.004 68.238 205.309 68.5099 206.455 69.0536C207.601 69.589 208.525 70.3418 209.228 71.3121C209.939 72.2825 210.361 73.4159 210.495 74.7125H206.844C206.643 73.8091 206.183 73.0311 205.464 72.3787C204.753 71.7262 203.799 71.4 202.603 71.4C201.557 71.4 200.641 71.676 199.855 72.2281C199.077 72.7718 198.471 73.5498 198.036 74.5619C197.601 75.5657 197.383 76.7535 197.383 78.1254C197.383 79.5307 197.597 80.7436 198.023 81.7641C198.45 82.7846 199.052 83.5751 199.83 84.1355C200.616 84.696 201.541 84.9762 202.603 84.9762C203.314 84.9762 203.958 84.8466 204.535 84.5872C205.121 84.3196 205.61 83.939 206.003 83.4454C206.405 82.9519 206.685 82.358 206.844 81.6637H210.495C210.361 82.9101 209.956 84.0226 209.278 85.0013C208.601 85.98 207.693 86.7496 206.555 87.31C205.426 87.8705 204.1 88.1507 202.578 88.1507ZM214.507 87.7617V68.489H218.133V71.5505H218.334C218.686 70.5133 219.305 69.6977 220.191 69.1038C221.086 68.5015 222.098 68.2004 223.228 68.2004C223.462 68.2004 223.738 68.2088 224.056 68.2255C224.382 68.2422 224.637 68.2631 224.821 68.2882V71.8768C224.671 71.835 224.403 71.7889 224.018 71.7388C223.633 71.6802 223.249 71.6509 222.864 71.6509C221.977 71.6509 221.187 71.8391 220.492 72.2156C219.806 72.5836 219.263 73.0981 218.861 73.7589C218.46 74.4113 218.259 75.1558 218.259 75.9923V87.7617H214.507ZM235.496 88.1507C233.689 88.1507 232.112 87.7366 230.765 86.9085C229.419 86.0804 228.373 84.9218 227.629 83.4329C226.884 81.9439 226.512 80.204 226.512 78.2132C226.512 76.214 226.884 74.4657 227.629 72.9684C228.373 71.4711 229.419 70.3084 230.765 69.4802C232.112 68.6521 233.689 68.238 235.496 68.238C237.303 68.238 238.879 68.6521 240.226 69.4802C241.573 70.3084 242.619 71.4711 243.363 72.9684C244.107 74.4657 244.48 76.214 244.48 78.2132C244.48 80.204 244.107 81.9439 243.363 83.4329C242.619 84.9218 241.573 86.0804 240.226 86.9085C238.879 87.7366 237.303 88.1507 235.496 88.1507ZM235.508 85.0013C236.679 85.0013 237.65 84.6918 238.419 84.0728C239.189 83.4538 239.758 82.6299 240.126 81.601C240.502 80.5721 240.69 79.4386 240.69 78.2006C240.69 76.971 240.502 75.8417 240.126 74.8129C239.758 73.7756 239.189 72.9433 238.419 72.3159C237.65 71.6886 236.679 71.3749 235.508 71.3749C234.329 71.3749 233.35 71.6886 232.572 72.3159C231.803 72.9433 231.23 73.7756 230.853 74.8129C230.485 75.8417 230.301 76.971 230.301 78.2006C230.301 79.4386 230.485 80.5721 230.853 81.601C231.23 82.6299 231.803 83.4538 232.572 84.0728C233.35 84.6918 234.329 85.0013 235.508 85.0013ZM263.109 73.1942L259.709 73.7965C259.567 73.3615 259.341 72.9475 259.032 72.5543C258.73 72.1612 258.32 71.8391 257.802 71.5882C257.283 71.3372 256.635 71.2118 255.857 71.2118C254.795 71.2118 253.908 71.4502 253.197 71.927C252.486 72.3954 252.13 73.0019 252.13 73.7463C252.13 74.3904 252.369 74.9091 252.846 75.3022C253.322 75.6954 254.092 76.0174 255.154 76.2683L258.216 76.971C259.989 77.3809 261.311 78.0124 262.181 78.8656C263.051 79.7189 263.486 80.8272 263.486 82.1907C263.486 83.3451 263.151 84.3739 262.482 85.2773C261.821 86.1724 260.897 86.875 259.709 87.3853C258.53 87.8956 257.162 88.1507 255.606 88.1507C253.448 88.1507 251.687 87.6906 250.324 86.7705C248.96 85.842 248.124 84.5245 247.814 82.8181L251.44 82.266C251.666 83.2112 252.13 83.9264 252.833 84.4116C253.536 84.8884 254.452 85.1268 255.581 85.1268C256.811 85.1268 257.794 84.8716 258.53 84.3614C259.266 83.8428 259.634 83.2112 259.634 82.4667C259.634 81.8645 259.408 81.3584 258.956 80.9485C258.513 80.5386 257.831 80.2291 256.911 80.02L253.649 79.3048C251.85 78.8949 250.52 78.2425 249.659 77.3474C248.805 76.4524 248.379 75.3189 248.379 73.9471C248.379 72.8095 248.697 71.814 249.332 70.9608C249.968 70.1076 250.846 69.4426 251.967 68.9658C253.088 68.4806 254.372 68.238 255.819 68.238C257.902 68.238 259.542 68.6897 260.738 69.5932C261.934 70.4882 262.725 71.6886 263.109 73.1942ZM275.729 88.1507C273.922 88.1507 272.345 87.7366 270.999 86.9085C269.652 86.0804 268.606 84.9218 267.862 83.4329C267.117 81.9439 266.745 80.204 266.745 78.2132C266.745 76.214 267.117 74.4657 267.862 72.9684C268.606 71.4711 269.652 70.3084 270.999 69.4802C272.345 68.6521 273.922 68.238 275.729 68.238C277.536 68.238 279.112 68.6521 280.459 69.4802C281.806 70.3084 282.852 71.4711 283.596 72.9684C284.341 74.4657 284.713 76.214 284.713 78.2132C284.713 80.204 284.341 81.9439 283.596 83.4329C282.852 84.9218 281.806 86.0804 280.459 86.9085C279.112 87.7366 277.536 88.1507 275.729 88.1507ZM275.741 85.0013C276.913 85.0013 277.883 84.6918 278.652 84.0728C279.422 83.4538 279.991 82.6299 280.359 81.601C280.735 80.5721 280.923 79.4386 280.923 78.2006C280.923 76.971 280.735 75.8417 280.359 74.8129C279.991 73.7756 279.422 72.9433 278.652 72.3159C277.883 71.6886 276.913 71.3749 275.741 71.3749C274.562 71.3749 273.583 71.6886 272.805 72.3159C272.036 72.9433 271.463 73.7756 271.086 74.8129C270.718 75.8417 270.534 76.971 270.534 78.2006C270.534 79.4386 270.718 80.5721 271.086 81.601C271.463 82.6299 272.036 83.4538 272.805 84.0728C273.583 84.6918 274.562 85.0013 275.741 85.0013ZM298.073 68.489V71.5004H287.181V68.489H298.073ZM290.168 87.7617V66.2556C290.168 65.051 290.431 64.0514 290.958 63.2567C291.485 62.4537 292.184 61.8556 293.054 61.4625C293.924 61.061 294.869 60.8602 295.889 60.8602C296.642 60.8602 297.286 60.9229 297.822 61.0484C298.357 61.1655 298.754 61.2743 299.014 61.3746L298.135 64.4111C297.96 64.3609 297.734 64.3024 297.458 64.2354C297.182 64.1602 296.847 64.1225 296.454 64.1225C295.542 64.1225 294.89 64.3484 294.497 64.8001C294.112 65.2518 293.919 65.9042 293.919 66.7575V87.7617H290.168ZM310.94 68.489V71.5004H300.413V68.489H310.94ZM303.236 63.8716H306.987V82.1029C306.987 82.8306 307.096 83.3785 307.314 83.7466C307.531 84.1063 307.811 84.353 308.154 84.4869C308.506 84.6123 308.886 84.6751 309.296 84.6751C309.597 84.6751 309.861 84.6542 310.087 84.6123C310.313 84.5705 310.488 84.5371 310.614 84.512L311.291 87.6112C311.074 87.6948 310.764 87.7784 310.363 87.8621C309.961 87.9541 309.459 88.0043 308.857 88.0127C307.87 88.0294 306.95 87.8537 306.097 87.4857C305.243 87.1176 304.553 86.5488 304.026 85.7792C303.499 85.0097 303.236 84.0435 303.236 82.8808V63.8716ZM326.913 87.7617H322.797L332.045 62.0647H336.524L345.771 87.7617H341.656L334.391 66.7324H334.19L326.913 87.7617ZM327.603 77.6987H340.953V80.9611H327.603V77.6987ZM348.78 87.7617V85.1895L359.219 71.927V71.7513H349.118V68.489H363.899V71.2243L353.861 84.3237V84.4994H364.25V87.7617H348.78ZM380.885 79.7691V68.489H384.649V87.7617H380.96V84.4241H380.76C380.316 85.453 379.605 86.3104 378.627 86.9963C377.656 87.6739 376.448 88.0127 375 88.0127C373.762 88.0127 372.667 87.7408 371.713 87.1971C370.768 86.645 370.023 85.8294 369.48 84.7504C368.944 83.6713 368.677 82.3371 368.677 80.7478V68.489H372.428V80.296C372.428 81.6093 372.792 82.6549 373.52 83.4329C374.248 84.2108 375.193 84.5998 376.355 84.5998C377.058 84.5998 377.757 84.4241 378.451 84.0728C379.154 83.7215 379.735 83.1903 380.195 82.4793C380.663 81.7683 380.893 80.8649 380.885 79.7691ZM389.69 87.7617V68.489H393.316V71.5505H393.517C393.868 70.5133 394.487 69.6977 395.374 69.1038C396.269 68.5015 397.281 68.2004 398.411 68.2004C398.645 68.2004 398.921 68.2088 399.239 68.2255C399.565 68.2422 399.82 68.2631 400.004 68.2882V71.8768C399.854 71.835 399.586 71.7889 399.201 71.7388C398.816 71.6802 398.432 71.6509 398.047 71.6509C397.16 71.6509 396.37 71.8391 395.675 72.2156C394.989 72.5836 394.446 73.0981 394.044 73.7589C393.643 74.4113 393.442 75.1558 393.442 75.9923V87.7617H389.69ZM410.867 88.1507C408.968 88.1507 407.333 87.745 405.961 86.9336C404.597 86.1138 403.543 84.9637 402.799 83.4831C402.063 81.9941 401.695 80.25 401.695 78.2508C401.695 76.2767 402.063 74.5368 402.799 73.0311C403.543 71.5254 404.581 70.3502 405.911 69.5053C407.249 68.6605 408.813 68.238 410.603 68.238C411.691 68.238 412.745 68.4179 413.765 68.7776C414.786 69.1373 415.702 69.7019 416.513 70.4715C417.325 71.241 417.965 72.2406 418.433 73.4703C418.901 74.6916 419.136 76.1763 419.136 77.9246V79.2546H403.815V76.444H415.459C415.459 75.457 415.259 74.5828 414.857 73.8216C414.456 73.052 413.891 72.4456 413.163 72.0022C412.444 71.5589 411.599 71.3372 410.629 71.3372C409.575 71.3372 408.654 71.5966 407.868 72.1152C407.09 72.6254 406.488 73.2946 406.061 74.1228C405.643 74.9425 405.434 75.8334 405.434 76.7953V78.9911C405.434 80.2793 405.66 81.3751 406.112 82.2785C406.572 83.1819 407.212 83.872 408.031 84.3488C408.851 84.8173 409.809 85.0515 410.905 85.0515C411.616 85.0515 412.264 84.9511 412.849 84.7504C413.435 84.5412 413.941 84.2317 414.368 83.8219C414.794 83.412 415.121 82.9059 415.346 82.3036L418.897 82.9435C418.613 83.9891 418.103 84.9051 417.366 85.6914C416.639 86.4693 415.723 87.0758 414.619 87.5108C413.523 87.9374 412.272 88.1507 410.867 88.1507ZM154.252 97.0647H158.957L167.138 117.04H167.439L175.62 97.0647H180.325V122.762H176.636V104.167H176.398L168.819 122.724H165.758L158.179 104.154H157.941V122.762H154.252V97.0647ZM191.27 123.188C190.048 123.188 188.944 122.962 187.957 122.511C186.97 122.051 186.188 121.386 185.611 120.516C185.042 119.646 184.757 118.579 184.757 117.316C184.757 116.229 184.967 115.334 185.385 114.631C185.803 113.928 186.368 113.372 187.079 112.962C187.79 112.552 188.584 112.243 189.463 112.034C190.341 111.825 191.236 111.666 192.148 111.557C193.302 111.423 194.239 111.314 194.958 111.231C195.678 111.139 196.201 110.992 196.527 110.792C196.853 110.591 197.016 110.265 197.016 109.813V109.725C197.016 108.629 196.707 107.78 196.088 107.178C195.477 106.576 194.565 106.275 193.352 106.275C192.089 106.275 191.094 106.555 190.366 107.115C189.647 107.667 189.149 108.282 188.873 108.96L185.347 108.157C185.765 106.986 186.376 106.04 187.179 105.321C187.991 104.593 188.923 104.066 189.977 103.74C191.031 103.405 192.14 103.238 193.302 103.238C194.072 103.238 194.887 103.33 195.749 103.514C196.619 103.69 197.43 104.016 198.183 104.493C198.944 104.97 199.568 105.651 200.053 106.538C200.538 107.416 200.78 108.558 200.78 109.963V122.762H197.117V120.127H196.966C196.723 120.612 196.36 121.089 195.874 121.557C195.389 122.026 194.766 122.415 194.005 122.724C193.244 123.034 192.332 123.188 191.27 123.188ZM192.085 120.177C193.122 120.177 194.009 119.972 194.745 119.562C195.49 119.152 196.054 118.617 196.439 117.956C196.832 117.287 197.029 116.572 197.029 115.81V113.326C196.895 113.46 196.636 113.585 196.251 113.703C195.874 113.811 195.444 113.907 194.958 113.991C194.473 114.066 194.001 114.138 193.541 114.204C193.081 114.263 192.696 114.313 192.386 114.355C191.659 114.447 190.994 114.602 190.391 114.819C189.797 115.037 189.321 115.35 188.961 115.76C188.61 116.162 188.434 116.697 188.434 117.366C188.434 118.295 188.777 118.998 189.463 119.474C190.149 119.943 191.023 120.177 192.085 120.177ZM205.777 122.762V103.489H209.404V106.551H209.604C209.956 105.513 210.575 104.698 211.461 104.104C212.356 103.502 213.369 103.2 214.498 103.2C214.732 103.2 215.008 103.209 215.326 103.225C215.652 103.242 215.907 103.263 216.091 103.288V106.877C215.941 106.835 215.673 106.789 215.288 106.739C214.904 106.68 214.519 106.651 214.134 106.651C213.247 106.651 212.457 106.839 211.763 107.216C211.077 107.584 210.533 108.098 210.131 108.759C209.73 109.411 209.529 110.156 209.529 110.992V122.762H205.777ZM222.788 116.225L222.763 111.645H223.416L231.095 103.489H235.587L226.829 112.774H226.239L222.788 116.225ZM219.338 122.762V97.0647H223.09V122.762H219.338ZM231.509 122.762L224.608 113.602L227.193 110.98L236.114 122.762H231.509ZM246.519 123.151C244.62 123.151 242.984 122.745 241.613 121.934C240.249 121.114 239.195 119.964 238.451 118.483C237.715 116.994 237.347 115.25 237.347 113.251C237.347 111.277 237.715 109.537 238.451 108.031C239.195 106.525 240.232 105.35 241.562 104.505C242.901 103.66 244.465 103.238 246.255 103.238C247.343 103.238 248.397 103.418 249.417 103.778C250.438 104.137 251.354 104.702 252.165 105.471C252.976 106.241 253.616 107.241 254.085 108.47C254.553 109.692 254.787 111.176 254.787 112.925V114.255H239.467V111.444H251.111C251.111 110.457 250.91 109.583 250.509 108.822C250.107 108.052 249.543 107.446 248.815 107.002C248.095 106.559 247.251 106.337 246.28 106.337C245.226 106.337 244.306 106.597 243.52 107.115C242.742 107.625 242.14 108.295 241.713 109.123C241.295 109.943 241.086 110.833 241.086 111.795V113.991C241.086 115.279 241.312 116.375 241.763 117.279C242.223 118.182 242.863 118.872 243.683 119.349C244.503 119.817 245.461 120.051 246.556 120.051C247.267 120.051 247.916 119.951 248.501 119.75C249.087 119.541 249.593 119.232 250.019 118.822C250.446 118.412 250.772 117.906 250.998 117.304L254.549 117.944C254.265 118.989 253.754 119.905 253.018 120.691C252.29 121.469 251.374 122.076 250.27 122.511C249.175 122.937 247.924 123.151 246.519 123.151ZM267.946 103.489V106.5H257.419V103.489H267.946ZM260.242 98.8716H263.994V117.103C263.994 117.831 264.103 118.379 264.32 118.747C264.538 119.106 264.818 119.353 265.161 119.487C265.512 119.612 265.893 119.675 266.303 119.675C266.604 119.675 266.867 119.654 267.093 119.612C267.319 119.571 267.495 119.537 267.62 119.512L268.298 122.611C268.08 122.695 267.771 122.778 267.369 122.862C266.968 122.954 266.466 123.004 265.864 123.013C264.876 123.029 263.956 122.854 263.103 122.486C262.25 122.118 261.56 121.549 261.033 120.779C260.506 120.01 260.242 119.044 260.242 117.881V98.8716ZM272.096 129.989V103.489H275.76V106.613H276.074C276.291 106.212 276.605 105.748 277.015 105.221C277.425 104.694 277.994 104.233 278.721 103.84C279.449 103.439 280.411 103.238 281.607 103.238C283.163 103.238 284.552 103.631 285.773 104.417C286.994 105.204 287.952 106.337 288.646 107.818C289.349 109.298 289.7 111.08 289.7 113.163C289.7 115.246 289.353 117.032 288.659 118.521C287.965 120.001 287.011 121.143 285.798 121.946C284.585 122.741 283.201 123.138 281.645 123.138C280.474 123.138 279.516 122.942 278.772 122.548C278.036 122.155 277.458 121.695 277.04 121.168C276.622 120.641 276.3 120.173 276.074 119.763H275.848V129.989H272.096ZM275.773 113.125C275.773 114.48 275.969 115.668 276.363 116.689C276.756 117.709 277.324 118.508 278.069 119.085C278.813 119.654 279.725 119.939 280.804 119.939C281.925 119.939 282.862 119.642 283.615 119.048C284.368 118.445 284.937 117.63 285.321 116.601C285.714 115.572 285.911 114.414 285.911 113.125C285.911 111.854 285.719 110.712 285.334 109.7C284.957 108.688 284.389 107.889 283.627 107.303C282.875 106.718 281.934 106.425 280.804 106.425C279.717 106.425 278.797 106.705 278.044 107.266C277.299 107.826 276.735 108.608 276.35 109.612C275.965 110.616 275.773 111.787 275.773 113.125ZM297.655 97.0647V122.762H293.904V97.0647H297.655ZM308.311 123.188C307.09 123.188 305.986 122.962 304.999 122.511C304.012 122.051 303.23 121.386 302.652 120.516C302.084 119.646 301.799 118.579 301.799 117.316C301.799 116.229 302.008 115.334 302.427 114.631C302.845 113.928 303.409 113.372 304.12 112.962C304.831 112.552 305.626 112.243 306.504 112.034C307.383 111.825 308.278 111.666 309.19 111.557C310.344 111.423 311.281 111.314 312 111.231C312.72 111.139 313.242 110.992 313.569 110.792C313.895 110.591 314.058 110.265 314.058 109.813V109.725C314.058 108.629 313.748 107.78 313.129 107.178C312.519 106.576 311.607 106.275 310.394 106.275C309.131 106.275 308.136 106.555 307.408 107.115C306.688 107.667 306.191 108.282 305.915 108.96L302.389 108.157C302.807 106.986 303.418 106.04 304.221 105.321C305.032 104.593 305.965 104.066 307.019 103.74C308.073 103.405 309.181 103.238 310.344 103.238C311.113 103.238 311.929 103.33 312.791 103.514C313.661 103.69 314.472 104.016 315.225 104.493C315.986 104.97 316.609 105.651 317.094 106.538C317.58 107.416 317.822 108.558 317.822 109.963V122.762H314.158V120.127H314.008C313.765 120.612 313.401 121.089 312.916 121.557C312.431 122.026 311.808 122.415 311.047 122.724C310.285 123.034 309.374 123.188 308.311 123.188ZM309.127 120.177C310.164 120.177 311.051 119.972 311.787 119.562C312.531 119.152 313.096 118.617 313.481 117.956C313.874 117.287 314.07 116.572 314.07 115.81V113.326C313.937 113.46 313.677 113.585 313.293 113.703C312.916 113.811 312.485 113.907 312 113.991C311.515 114.066 311.042 114.138 310.582 114.204C310.122 114.263 309.737 114.313 309.428 114.355C308.7 114.447 308.035 114.602 307.433 114.819C306.839 115.037 306.362 115.35 306.003 115.76C305.651 116.162 305.476 116.697 305.476 117.366C305.476 118.295 305.818 118.998 306.504 119.474C307.19 119.943 308.064 120.177 309.127 120.177ZM330.937 123.151C329.072 123.151 327.466 122.728 326.119 121.883C324.781 121.03 323.752 119.855 323.032 118.358C322.313 116.86 321.953 115.145 321.953 113.213C321.953 111.256 322.321 109.528 323.057 108.031C323.794 106.525 324.831 105.35 326.169 104.505C327.508 103.66 329.084 103.238 330.9 103.238C332.363 103.238 333.668 103.51 334.814 104.054C335.96 104.589 336.885 105.342 337.587 106.312C338.298 107.282 338.721 108.416 338.855 109.712H335.203C335.003 108.809 334.542 108.031 333.823 107.379C333.112 106.726 332.158 106.4 330.962 106.4C329.917 106.4 329.001 106.676 328.214 107.228C327.437 107.772 326.83 108.55 326.395 109.562C325.96 110.566 325.743 111.754 325.743 113.125C325.743 114.531 325.956 115.744 326.383 116.764C326.809 117.785 327.411 118.575 328.189 119.136C328.976 119.696 329.9 119.976 330.962 119.976C331.673 119.976 332.317 119.847 332.895 119.587C333.48 119.32 333.97 118.939 334.363 118.445C334.764 117.952 335.044 117.358 335.203 116.664H338.855C338.721 117.91 338.315 119.023 337.638 120.001C336.96 120.98 336.052 121.75 334.915 122.31C333.785 122.87 332.46 123.151 330.937 123.151ZM351.173 123.151C349.274 123.151 347.639 122.745 346.267 121.934C344.903 121.114 343.849 119.964 343.105 118.483C342.369 116.994 342.001 115.25 342.001 113.251C342.001 111.277 342.369 109.537 343.105 108.031C343.849 106.525 344.887 105.35 346.217 104.505C347.555 103.66 349.119 103.238 350.909 103.238C351.997 103.238 353.051 103.418 354.071 103.778C355.092 104.137 356.008 104.702 356.819 105.471C357.631 106.241 358.271 107.241 358.739 108.47C359.207 109.692 359.442 111.176 359.442 112.925V114.255H344.121V111.444H355.765C355.765 110.457 355.565 109.583 355.163 108.822C354.761 108.052 354.197 107.446 353.469 107.002C352.75 106.559 351.905 106.337 350.935 106.337C349.881 106.337 348.96 106.597 348.174 107.115C347.396 107.625 346.794 108.295 346.367 109.123C345.949 109.943 345.74 110.833 345.74 111.795V113.991C345.74 115.279 345.966 116.375 346.418 117.279C346.878 118.182 347.517 118.872 348.337 119.349C349.157 119.817 350.115 120.051 351.211 120.051C351.922 120.051 352.57 119.951 353.155 119.75C353.741 119.541 354.247 119.232 354.674 118.822C355.1 118.412 355.427 117.906 355.652 117.304L359.203 117.944C358.919 118.989 358.409 119.905 357.672 120.691C356.945 121.469 356.029 122.076 354.925 122.511C353.829 122.937 352.578 123.151 351.173 123.151Z" fill="#484647"/>
<defs>
<clipPath id="clip0_440_6399">
<rect width="98.4286" height="98.4286" fill="white" transform="translate(25.238 32.8096)"/>
</clipPath>
</defs>
</svg>
