<?xml version="1.0" encoding="UTF-8"?>
<svg id="a" data-name="Layer 1" xmlns="http://www.w3.org/2000/svg" width="415" height="253" xmlns:xlink="http://www.w3.org/1999/xlink" viewBox="0 0 415 253">
  <defs>
    <style>
      .d {
        fill: none;
      }

      .e {
        fill: #e64619;
      }

      .f {
        fill: #34a0da;
      }

      .g {
        fill: #505050;
      }

      .h {
        fill: #fff;
      }

      .i {
        clip-path: url(#c);
      }

      .j {
        clip-path: url(#b);
      }

      .k {
        fill: #82b729;
      }

      .l {
        fill: #737373;
      }

      .m {
        fill: #787878;
      }

      .n {
        fill: #f9b801;
      }
    </style>
    <clipPath id="b">
      <polyline class="d" points="54.99998 55.08472 54.99998 111.00002 312.99997 111.00002 312.99997 55.08472"/>
    </clipPath>
    <clipPath id="c">
      <polyline class="d" points="54.99998 55.08472 54.99998 111.00002 312.99997 111.00002 312.99997 55.08472"/>
    </clipPath>
  </defs>
  <path class="g" d="M399,237c2.80859,0,5.56769-.73929,8-2.14359,2.43231-1.40427,4.45209-3.4241,5.85638-5.85641,1.4043-2.43228,2.14362-5.19141,2.14362-7.99997V16.00002c0-2.80859-.73932-5.56769-2.14362-8s-3.42407-4.4521-5.85638-5.85641c-2.43231-1.40428-5.19141-2.1436-8-2.1436H16c-2.80862,0-5.56772.73932-8.00003,2.1436-2.43231,1.40431-4.45209,3.4241-5.85641,5.85641C.73929,10.43233,0,13.19142,0,16.00002v205.00002c0,2.80856.73929,5.56769,2.14355,7.99997,1.40433,2.43231,3.4241,4.45215,5.85641,5.85641,2.43231,1.4043,5.19141,2.14359,8.00003,2.14359"/>
  <polyline class="g" points="31.99997 253 415 253 415 189 31.99997 189"/>
  <path class="g" d="M63.99998,221.00003c0-5.61719-1.47861-11.13541-4.28719-16.00003-2.80856-4.86459-6.84821-8.90424-11.7128-11.7128-4.86462-2.80856-10.38284-4.2872-16.00003-4.2872s-11.13538,1.47864-15.99997,4.2872c-4.86462,2.80856-8.90424,6.84821-11.71283,11.7128-2.80859,4.86462-4.28717,10.38284-4.28717,16.00003s1.47858,11.13538,4.28717,15.99997c2.80859,4.86462,6.84821,8.90424,11.71283,11.71283,4.86459,2.80859,10.38284,4.28717,15.99997,4.28717s11.13541-1.47858,16.00003-4.28717c4.86459-2.80859,8.90424-6.84821,11.7128-11.71283,2.80858-4.86459,4.28719-10.38281,4.28719-15.99997"/>
  <path class="h" d="M398.5,237c2.80859,0,5.56769-.73929,8-2.14359,2.43231-1.40427,4.45209-3.4241,5.85638-5.85641,1.4043-2.43228,2.14362-5.19141,2.14362-7.99997V16.5c0-2.80858-.73932-5.56766-2.14362-7.99997-1.4043-2.43234-3.42407-4.4521-5.85638-5.85645-2.43231-1.40427-5.19141-2.14357-8-2.14357H16.5c-2.80859,0-5.56769.7393-8,2.14357-2.43231,1.40434-4.45212,3.4241-5.85641,5.85645C1.23929,10.93234.49997,13.69142.49997,16.5v204.50003c0,2.80856.73932,5.56769,2.14362,7.99997,1.4043,2.43231,3.4241,4.45215,5.85641,5.85641,2.43231,1.4043,5.19141,2.14359,8,2.14359"/>
  <polyline class="h" points="32.5 252.50003 414.5 252.50003 414.5 220.5 32.5 220.5"/>
  <path class="h" d="M64.49998,220.5c0-5.61716-1.47859-11.13538-4.28719-15.99997-2.80859-4.86462-6.84819-8.90424-11.71281-11.7128-4.86461-2.80862-10.38283-4.2872-15.99998-4.2872s-11.13541,1.47858-16,4.2872c-4.86462,2.80856-8.90424,6.84818-11.71283,11.7128-2.80859,4.86459-4.2872,10.38281-4.2872,15.99997s1.47861,11.13541,4.2872,16c2.80859,4.86462,6.84821,8.90424,11.71283,11.71283,4.86459,2.80859,10.38281,4.2872,16,4.2872s11.13538-1.47861,15.99998-4.2872c4.86462-2.80859,8.90422-6.84821,11.71281-11.71283,2.80859-4.86459,4.28719-10.38281,4.28719-16"/>
  <polyline class="m" points="155.34999 57.06767 155.34999 83.82861 150.64398 83.82861 150.64398 62.85266 150.56898 62.85266 142.15897 83.82861 139.03998 83.82861 130.42198 62.85266 130.36497 62.85266 130.36497 83.82861 126.01497 83.82861 126.01497 57.06767 132.76198 57.06767 140.54799 76.90561 140.66199 76.90561 148.883 57.06767 155.34999 57.06767"/>
  <path class="m" d="M164.32698,83.82761h-4.57401v-19.18294h4.57401v19.18294M159.28198,59.10165c-.01399-.7155.287-1.40109.82201-1.87601.52899-.49638,1.231-.7675,1.95599-.75598.744-.02307,1.465.25615,2,.774.51401.47978.802,1.15385.79401,1.85698.01299.70502-.285,1.38008-.813,1.84702-.53999.49689-1.25198.7644-1.985.746-.73201.01904-1.442-.25237-1.97501-.755-.519-.46901-.81-1.13876-.79999-1.83801"/>
  <path class="m" d="M178.12399,80.54362c.77199-.0182,1.534-.1761,2.24899-.46602.80801-.30519,1.57199-.71939,2.26801-1.23099v4.2c-.77899.42911-1.617.74339-2.48601.933-1.002.22011-2.02599.32681-3.052.31801-2.59399.1037-5.116-.8649-6.97299-2.67799-1.80101-1.81131-2.772-4.2865-2.68402-6.839-.10497-2.79961.877-5.53131,2.74001-7.62401,1.827-2,4.41602-2.99997,7.76701-2.99997.877.0027,1.75002.1125,2.59999.32701.72601.16228,1.42801.41632,2.089.75595v4.32901c-.666-.48831-1.394-.8868-2.164-1.185-.72099-.27711-1.48701-.41949-2.25899-.42-1.636-.06691-3.22301.56419-4.36601,1.73599-1.15401,1.27859-1.75299,2.96381-1.66299,4.68401-.10001,1.6656.47699,3.30078,1.59999,4.53499,1.158,1.1192,2.73001,1.70712,4.338,1.623"/>
  <path class="m" d="M195.66298,64.32765c.32899-.00278.65799.02231.983.075.25102.0396.49702.10185.737.186v4.57295c-.32399-.21518-.67699-.382-1.049-.495-.541-.16759-1.106-.24661-1.672-.23399-1.11501-.0036-2.16699.51439-2.84402,1.39999-.87198,1.25981-1.28297,2.78171-1.16298,4.30901v9.685h-4.57401v-19.18495h4.57401v3.02295h.075c.37201-.98788,1.03-1.84239,1.89001-2.45401.896-.60687,1.961-.91711,3.04298-.88695"/>
  <path class="m" d="M202.41199,74.36761c-.11301,1.6472.37799,3.27901,1.38,4.591,1.01099,1.09659,2.46198,1.6792,3.94998,1.586,1.44501.09421,2.85101-.49251,3.80002-1.586.96198-1.3701,1.42099-3.0303,1.29999-4.7.12201-1.66971-.358-3.3279-1.35199-4.675-.95602-1.07588-2.35202-1.6566-3.789-1.57701-1.48502-.08049-2.92401.5287-3.90002,1.65102-1.00699,1.35651-1.49898,3.0264-1.38898,4.71199M197.64798,74.51662c-.146-2.7775.83499-5.49649,2.72202-7.53999,2.02499-1.93552,4.76297-2.94247,7.55998-2.77997,2.64401-.15179,5.22803.82091,7.11601,2.67796,1.77802,1.9761,2.69901,4.5773,2.56097,7.23199.13803,2.7424-.845,5.4231-2.72198,7.427-1.98099,1.90689-4.66299,2.907-7.40903,2.76199-2.64795.13652-5.23697-.81009-7.17197-2.62199-1.836-1.91611-2.797-4.5069-2.655-7.157"/>
  <path class="m" d="M224.408,69.68362c-.03001.57489.19896,1.13309.62396,1.521.84703.5946,1.77701,1.0629,2.75902,1.39,1.46301.48311,2.78401,1.3194,3.84599,2.435.746.92581,1.13802,2.08672,1.10599,3.27499.04802,1.7063-.73897,3.3289-2.10698,4.349-1.661,1.1734-3.66901,1.75191-5.70001,1.642-.89897-.00969-1.79399-.10651-2.674-.28899-.85201-.1554-1.686-.4025-2.485-.737v-4.442c.82999.5712,1.73199,1.02919,2.68301,1.36198.83499.3114,1.71698.4805,2.60797.5.78604.05132,1.57306-.09618,2.28702-.42899.49901-.29941.785-.8567.737-1.437.00301-.616-.28-1.19852-.76601-1.577-.89099-.63091-1.867-1.13072-2.90001-1.48402-1.37-.48138-2.60197-1.28819-3.591-2.351-.73199-.94888-1.10596-2.12479-1.05798-3.32199-.02802-1.67409.74899-3.26001,2.088-4.265,1.55699-1.16658,3.47101-1.75681,5.41499-1.66995.767.00813,1.53302.08276,2.28702.22301.724.11644,1.43301.31056,2.11603.57899v4.29596c-.66203-.42581-1.37204-.77031-2.11603-1.026-.76898-.27951-1.58101-.42471-2.40001-.429-.71199-.04251-1.42001.13179-2.03101.5-.467.30159-.74298.8252-.72797,1.381"/>
  <g class="j">
    <path class="m" d="M239.51099,74.36761c-.11301,1.6472.37799,3.27901,1.38004,4.591,1.01096,1.09659,2.46196,1.6792,3.94995,1.586,1.44501.09421,2.85101-.49251,3.80003-1.586.96196-1.3701,1.42096-3.0303,1.29996-4.7.12202-1.66971-.358-3.3278-1.35199-4.675-.95601-1.07588-2.35201-1.6566-3.789-1.57701-1.485-.08078-2.92398.52852-3.89998,1.65102-1.00702,1.35629-1.49902,3.0264-1.38901,4.71199M234.74696,74.51662c-.14697-2.77739.834-5.49629,2.72102-7.53999,2.02498-1.93552,4.763-2.94247,7.55998-2.77997,2.64398-.15179,5.228.82091,7.11601,2.67796,1.77798,1.9761,2.69901,4.5773,2.56097,7.23199.13803,2.74231-.84398,5.423-2.72098,7.427-1.98102,1.90689-4.66301,2.907-7.409,2.76199-2.64801.13652-5.237-.81009-7.17198-2.62199-1.83601-1.91611-2.79703-4.5069-2.65501-7.157"/>
    <path class="m" d="M265.439,55.08966c.49197-.00354.98398.02451,1.47299.08398.38498.04617.76498.13057,1.13397.25201v3.89999c-.25397-.12949-.51999-.23592-.79297-.31801-.42102-.12988-.86002-.19267-1.29999-.18599-.83301-.05121-1.64404.27402-2.211.886-.56802.7511-.84302,1.68292-.77502,2.62201v2.315h4.328v3.69495h-4.328v15.489h-4.63501v-15.489h-3.25v-3.69495h3.25v-2.66901c-.06299-1.85884.66101-3.65808,1.99402-4.955,1.37497-1.30577,3.21799-2.00194,5.11301-1.931"/>
  </g>
  <path class="m" d="M277.11795,80.54462c.32605-.0114.64902-.07449.95505-.187.34097-.11.668-.26041.97296-.448v3.733c-.45898.216-.94598.36679-1.44598.44798-.65601.13501-1.32404.2037-1.99402.205-1.59497.12241-3.16797-.42928-4.33698-1.52098-1.05603-1.28291-1.57501-2.92513-1.44598-4.582v-9.85301h-3.19403v-3.69995h3.19403v-4.30602l4.59198-1.381v5.69202h4.63v3.69995h-4.63v8.974c-.08502.88429.146,1.7701.65198,2.5.54602.5284,1.29401.79399,2.05099.72801"/>
  <g class="i">
    <path class="m" d="M125.29498,110.03561v-2.873c.28302.24911.5961.46181.93201.63303.3678.19066.75119.34956,1.146.47499.3965.12709.8011.22728,1.211.29999.3683.06689.7417.10199,1.116.10498.92259.06372,1.84399-.13969,2.65401-.586.5721-.37149.9043-1.01848.873-1.69989.00888-.36742-.09251-.72888-.29102-1.03809-.21831-.31569-.49449-.5871-.814-.80002-.38979-.26648-.8009-.5006-1.229-.69998-.4713-.22261-.976-.45592-1.51399-.69989-.57799-.30542-1.1167-.61403-1.61601-.92612-.47359-.2919-.90999-.64011-1.29999-1.037-.36371-.37251-.65739-.8074-.867-1.28391-.22049-.53111-.3277-1.10219-.31499-1.67709-.01759-.7233.17-1.43681.54099-2.058.36021-.58191.84741-1.07481,1.425-1.442.61931-.39139,1.2997-.67659,2.013-.84399.75281-.18372,1.52501-.2764,2.30002-.27602,1.3261-.07719,2.65359.1273,3.89499.60001v2.756c-1.10339-.72789-2.4084-1.0891-3.72902-1.032-.42038.00011-.83987.03931-1.25298.11702-.39011.06949-.76669.20009-1.11601.38698-.3147.1685-.58789.40491-.79999.69202-.21101.29749-.3195.6555-.30901,1.01999-.00891.3398.0733.6757.23801.97301.1776.29489.4138.5502.694.75.35098.2547.72449.47659,1.11598.66299.43932.21471.94801.44801,1.526.7.59399.30539,1.1543.62599,1.681.96201.5034.31789.96941.6916,1.38901,1.114.39091.39441.71211.85219.95,1.35399.24049.53194.36011,1.11043.34999,1.69402.06693,1.46028-.67468,2.83899-1.92999,3.588-.6273.38309-1.3167.65379-2.03699.8-.8008.16737-1.617.24982-2.43501.24602-.2847,0-.63499-.02133-1.05099-.06403-.416-.04259-.84171-.10532-1.27701-.18799-.41669-.07799-.82889-.17819-1.23499-.3-.32881-.0919-.6441-.22629-.93799-.40002"/>
    <path class="m" d="M144.05099,100.58562c-.97751-.0435-1.9201.3678-2.55301,1.114-.6698.87941-1.00259,1.9695-.93799,3.073-.06131,1.07402.27719,2.13269.95,2.97198.64049.72633,1.57449,1.12462,2.54199,1.08401.95468.05681,1.8806-.33829,2.50002-1.06702.63429-.88049.94289-1.95399.87299-3.03697.0695-1.0903-.2388-2.1713-.87299-3.06102-.6156-.735-1.54282-1.13519-2.50002-1.07898M143.91698,110.98563c-3.18779.22151-5.95158-2.1832-6.17308-5.37111-.01782-.25732-.01852-.51549-.00191-.77289-.10181-1.75092.53349-3.46451,1.752-4.72601,1.28171-1.17671,2.9823-1.7892,4.71999-1.70001,1.6478-.0977,3.2607.50221,4.444,1.65302,1.11781,1.2567,1.69011,2.9061,1.591,4.58501.2294,3.26758-2.23349,6.1024-5.50108,6.33179-.2756.01941-.55231.01952-.82791.00021"/>
    <polyline class="m" points="153.04898 92.92661 155.81598 92.92661 155.81598 110.70361 153.04898 110.70361 153.04898 92.92661"/>
    <path class="m" d="M170.00699,110.70361h-2.755v-1.89999h-.047c-.70502,1.39828-2.16501,2.25241-3.729,2.18098-2.87399,0-4.311-1.70428-4.311-5.11298v-7.17601h2.755v6.89502c0,2.15797.843,3.23698,2.52899,3.23698.77101.01971,1.509-.3073,2.01302-.89101.547-.65131.82898-1.48442.78999-2.334v-6.907h2.755v12.008"/>
    <path class="m" d="M180.00699,110.57462c-.66901.2923-1.396.429-2.12601.40002-2.35899,0-3.539-1.11803-3.539-3.35402v-6.791h-2.03v-2.134h2.03101v-2.77901l2.75499-.77399v3.55299h2.90901v2.134h-2.90901v5.99998c-.049.53801.09001,1.07631.39201,1.52402.347.33771.82498.50499,1.30698.45697.43802.00952.86502-.13165,1.21103-.39996l-.00101,2.16399"/>
    <path class="m" d="M185.14099,110.70361h-2.755v-12.00699h2.755v12.00699M183.772,96.17561c-.427.0092-.84201-.14621-1.15802-.43401-.315-.27719-.49199-.6801-.48099-1.09999-.01003-.4236.16599-.83049.48099-1.114.31299-.29399.729-.4538,1.15802-.44501.43799-.01019.86398.1492,1.18698.44501.31799.28189.496.68919.48698,1.114.00302.4153-.17499.81149-.48698,1.08499-.32101.2998-.74802.4617-1.18698.451"/>
    <path class="m" d="M194.258,100.58562c-.97702-.0435-1.92001.3678-2.55301,1.114-.66998.87941-1.00301,1.9695-.93799,3.073-.061,1.07402.27699,2.13269.94997,2.97198.64.72633,1.57503,1.12462,2.54202,1.08401.955.0569,1.881-.33829,2.5-1.06702.63402-.88049.94299-1.95399.873-3.03697.06999-1.0903-.23898-2.1713-.873-3.06102-.616-.735-1.54298-1.13519-2.5-1.07898M194.12599,110.98563c-3.188.22151-5.95201-2.1832-6.17299-5.37111-.01801-.25732-.01901-.51549-.00201-.77289-.10199-1.75092.53299-3.46451,1.75201-4.72601,1.28198-1.17671,2.98199-1.7892,4.71999-1.70001,1.64702-.09718,3.25902.50272,4.442,1.65302,1.11798,1.2567,1.68997,2.9061,1.59099,4.58501.22899,3.26758-2.23399,6.1024-5.50099,6.33179-.276.01941-.552.01952-.828.00021"/>
    <path class="m" d="M214.08899,110.70361h-2.755v-6.76599c0-2.24332-.80402-3.36501-2.41098-3.36501-.798-.0184-1.56102.32401-2.07803.93199-.55798.65329-.85098,1.49229-.82001,2.35101v6.84799h-2.767v-12.00699h2.76303v1.993h.04697c.78003-1.44141,2.30502-2.3212,3.94302-2.27501,1.153-.07269,2.27298.39799,3.028,1.272.76399,1.06721,1.13298,2.36659,1.045,3.67599l.005,7.341"/>
    <path class="m" d="M216.68997,110.32861v-2.521c.97501.75571,2.17401,1.16429,3.40802,1.16101,1.66298,0,2.49399-.4846,2.49399-1.45401.00801-.25049-.06699-.49658-.21399-.70001-.15802-.20508-.353-.37811-.57602-.51001-.26999-.16248-.55699-.29657-.85498-.39999-.32904-.11797-.69504-.25127-1.10004-.39998-.46198-.17851-.91197-.38631-1.34695-.62201-.37003-.19479-.707-.44571-1-.744-.26202-.27089-.46602-.592-.60004-.94398-.14099-.39461-.20898-.8119-.19997-1.23102-.01102-.5392.13298-1.07019.41499-1.52998.28497-.44931.666-.8298,1.116-1.114.48999-.31071,1.02798-.54031,1.591-.68001.60201-.15349,1.22-.2305,1.84097-.229,1.02701-.0174,2.04904.15199,3.01604.50002v2.38098c-.87003-.58289-1.89799-.88568-2.94502-.868-.31799-.0036-.63498.03171-.944.10501-.254.05969-.49599.15889-.71899.29401-.186.11359-.34502.26778-.46298.45099-.11102.17319-.16904.37459-.16702.57999-.00699.23039.05101.4581.16702.657.125.19441.29297.35701.49197.47501.24802.1515.51102.27721.784.375.30501.1134.655.2364,1.05101.369.479.1913.94899.4066,1.407.645.38701.1982.74399.4485,1.06299.74399.28799.27119.51903.59813.677.961.16803.41249.24802.855.23703,1.30002.01297.56158-.13503,1.11526-.427,1.595-.28903.45741-.67902.84258-1.14001,1.12598-.508.31059-1.064.53432-1.64502.66202-.64496.14728-1.304.22011-1.96498.217-1.18602.02818-2.364-.19569-3.45601-.65701"/>
    <path class="m" d="M237.74498,96.18661v6.144h1.82899c.99301.06931,1.97699-.22659,2.76698-.832.65201-.59988,1.00104-1.46109.95-2.34599,0-1.97731-1.16397-2.966-3.49097-2.966h-2.05501M237.74498,104.60562v6.10001h-2.815v-16.81702h5.166c1.62799-.10249,3.24001.37511,4.549,1.34801,1.09901.94769,1.69499,2.35139,1.61501,3.8.049,1.51889-.56703,2.98358-1.687,4.011-1.26201,1.0892-2.89601,1.64778-4.56,1.55899l-2.26801-.00099"/>
    <path class="m" d="M254.81097,104.8036l-2.55304.35204c-.63193.0484-1.24394.24316-1.78799.569-.43396.35367-.65996.90317-.59999,1.45998-.01299.47818.18903.93701.55202,1.24899.41504.34048.94299.51381,1.47899.48602.78802.02158,1.54701-.29683,2.08403-.87401.55499-.59523.85202-1.38641.82501-2.19998l.00098-1.04204M257.47101,110.70361h-2.67203v-1.87599h-.047c-.71603,1.36702-2.14998,2.205-3.69302,2.158-1.02597.05991-2.03397-.28549-2.80795-.96202-.68602-.66386-1.05603-1.58989-1.01501-2.54399,0-2.26662,1.32202-3.5876,3.96696-3.963l3.61003-.5c0-1.71199-.82303-2.56799-2.47-2.56799-1.44299-.00201-2.83702.5237-3.91901,1.47798v-2.386c1.35199-.7686,2.88699-1.15768,4.44199-1.12599,3.07202,0,4.60797,1.493,4.60797,4.479l-.00293,7.81"/>
    <path class="m" d="M267.88498,101.2886c-.423-.28468-.92801-.42079-1.43698-.38699-.82001.00191-1.58502.41071-2.04303,1.091-.58899.87311-.87601,1.91461-.81897,2.966v5.74701h-2.75604v-12.009h2.75604v2.47398h.04697c.21701-.76329.64804-1.44879,1.241-1.976.51599-.45718,1.18103-.7097,1.87003-.71001.39297-.02219.78497.0545,1.13998.22301l.00101,2.58099"/>
    <path class="m" d="M276.94498,110.57462c-.66904.2923-1.396.429-2.12598.40002-2.35901,0-3.53903-1.11803-3.53903-3.35402v-6.791h-2.03101v-2.134h2.02802v-2.77901l2.75497-.77399v3.55299h2.90903v2.134h-2.90903v5.99998c-.04898.53801.09,1.07631.39203,1.52402.34698.33771.82498.50499,1.30701.45697.43802.00952.86499-.13165,1.21097-.39996l.00302,2.16399"/>
    <path class="m" d="M290.15097,110.70361h-2.755v-6.76599c0-2.24332-.80399-3.36501-2.41098-3.36501-.798-.0184-1.561.32401-2.078.93199-.55798.65329-.85101,1.49229-.81998,2.35101v6.84799h-2.76605v-12.00699h2.76401v1.993h.04703c.78-1.44141,2.30499-2.3212,3.94299-2.27501,1.15298-.07269,2.27301.39799,3.02798,1.272.76401,1.06721,1.133,2.36659,1.04501,3.67599l.00299,7.341"/>
    <path class="m" d="M300.66199,103.51662c.043-.81909-.20502-1.627-.70001-2.28099-.474-.55002-1.17499-.85071-1.89999-.81502-.76199-.0128-1.49402.29831-2.01297.856-.57202.6169-.92804,1.4025-1.01501,2.239l5.62799.00101M303.32199,105.43961h-8.289c-.02899.9639.34799,1.89572,1.039,2.56802.76099.63568,1.73599.95747,2.72598.89999,1.28302.00519,2.535-.39711,3.57501-1.14902v2.19402c-1.34.74539-2.862,1.1024-4.39401,1.03098-1.573.08614-3.10699-.5097-4.20999-1.63499-1.08301-1.27887-1.63-2.92708-1.52603-4.59999-.06799-1.68539.53601-3.3289,1.68103-4.56799,1.07498-1.1575,2.59399-1.79982,4.17401-1.76501,1.45999-.08498,2.87997.4973,3.85999,1.58301.97598,1.2515,1.46201,2.81599,1.36603,4.40001l-.00201,1.04099"/>
  </g>
  <path class="m" d="M312.99997,101.2886c-.42297-.28468-.92801-.42079-1.43701-.38699-.81998.00191-1.58499.41071-2.04297,1.091-.58899.87311-.87601,1.91461-.819,2.966v5.74701h-2.75601v-12.009h2.75601v2.47398h.047c.21698-.76329.64798-1.44879,1.241-1.976.51599-.45718,1.18103-.7097,1.87-.71001.39301-.02219.785.0545,1.13998.22301l.00101,2.58099"/>
  <polyline class="e" points="54.99998 56.89665 80.96999 56.89665 80.96999 82.54062 54.99998 82.54062 54.99998 56.89665"/>
  <polyline class="k" points="83.67299 56.89665 109.64299 56.89665 109.64299 82.54062 83.67299 82.54062 83.67299 56.89665"/>
  <polyline class="f" points="54.99998 85.20862 80.96999 85.20862 80.96999 110.85262 54.99998 110.85262 54.99998 85.20862"/>
  <polyline class="n" points="83.67299 85.20862 109.64299 85.20862 109.64299 110.85262 83.67299 110.85262 83.67299 85.20862"/>
  <path class="l" d="M57.38672,156.80002v-18.20508h5.02734c6.41537,0,9.62305,2.95801,9.62305,8.87402,0,2.80991-.89079,5.06754-2.67236,6.77295-1.78157,1.70538-4.16618,2.55811-7.15381,2.55811h-4.82422M59.51952,140.52463v14.34573h2.7168c2.38672,0,4.24448-.63901,5.57326-1.91699,1.32877-1.27798,1.99316-3.08917,1.99316-5.43359,0-4.66342-2.47981-6.99515-7.43945-6.99515h-2.84375"/>
  <path class="l" d="M84.63908,156.80002h-2.08203v-2.03125h-.05078c-.90559,1.55731-2.2386,2.33594-3.99902,2.33594-1.29492,0-2.30844-.34277-3.04053-1.02832-.7321-.68555-1.09816-1.59537-1.09816-2.72949,0-2.42905,1.43034-3.84247,4.29102-4.24023l3.89746-.5459c0-2.20898-.8929-3.31348-2.67871-3.31348-1.56575,0-2.97917.5332-4.24023,1.59961v-2.13281c1.278-.81247,2.75066-1.21875,4.41797-1.21875,3.05534,0,4.58301,1.61655,4.58301,4.84961v8.45508h0M82.55704,150.22385l-3.13574.43161c-.96484.13544-1.69272.37451-2.18359.71729-.49089.34277-.73634.95004-.73634,1.82178,0,.63477.22641,1.15314.67921,1.55518.45279.40201,1.05583.603,1.80908.603,1.03255,0,1.88525-.36182,2.55809-1.08545.67285-.72363,1.00928-1.6398,1.00928-2.74854v-1.29492"/>
  <path class="l" d="M94.57169,156.67307c-.49088.27084-1.13834.40628-1.94238.40628-2.27669,0-3.41502-1.26953-3.41502-3.80859v-7.69336h-2.23438v-1.77737h2.23438v-3.1738l2.08202-.67288v3.84668h3.27539v1.77737h-3.27539v7.32516c0,.87177.14812,1.49384.44434,1.86621.29622.37241.78711.55862,1.47266.55862.52473,0,.97752-.14389,1.35838-.43164v1.77734"/>
  <path class="l" d="M106.63507,156.80002h-2.08202v-2.03125h-.0508c-.90559,1.55731-2.2386,2.33594-3.99902,2.33594-1.29492,0-2.30843-.34277-3.04053-1.02832s-1.09814-1.59537-1.09814-2.72949c0-2.42905,1.43034-3.84247,4.291-4.24023l3.89748-.5459c0-2.20898-.89291-3.31348-2.67873-3.31348-1.56575,0-2.97917.5332-4.24023,1.59961v-2.13281c1.278-.81247,2.75066-1.21875,4.41797-1.21875,3.05534,0,4.58301,1.61655,4.58301,4.84961v8.45508h0M104.55305,150.22385l-3.13576.43161c-.96484.13544-1.6927.37451-2.18359.71729s-.73633.95004-.73633,1.82178c0,.63477.22639,1.15314.6792,1.55518.4528.40201,1.05583.603,1.80908.603,1.03255,0,1.88525-.36182,2.55811-1.08545.67284-.72363,1.00928-1.6398,1.00928-2.74854v-1.29492"/>
  <path class="l" d="M133.87271,157.09201c-.48241,0-.90771-.06558-1.27588-.19678-.36815-.1312-.70882-.31738-1.02197-.55859s-.61572-.53531-.90771-.88235c-.29199-.34698-.5988-.74054-.92041-1.18066-.33853.36395-.72998.71518-1.17432,1.05374-.44434.33853-.93735.63898-1.47902.90137-.54166.26236-1.13411.47186-1.77733.62842-.64323.15656-1.34148.23486-2.09473.23486-.91406,0-1.75195-.11426-2.51367-.34277s-1.41342-.56491-1.95509-1.00928c-.54166-.44434-.96272-.99234-1.26317-1.64404-.30046-.65167-.4507-1.4007-.4507-2.24707,0-1.29492.36816-2.40152,1.10449-3.31982.73634-.9183,1.77734-1.66943,3.12305-2.25345-.25389-.18616-.50781-.40414-.76172-.65381-.25389-.24966-.4803-.5332-.6792-.85059-.1989-.31735-.35971-.66861-.48242-1.05371-.12271-.38507-.18408-.80615-.18408-1.26318,0-.66861.12061-1.26105.36182-1.77737.24121-.51627.57339-.95215.99658-1.30759.42317-.35547.92253-.62421,1.49805-.80618.57553-.18195,1.1976-.27295,1.86621-.27295.66016,0,1.26318.091,1.80908.27295.5459.18198,1.01562.44223,1.40918.78076.39355.33856.70036.74481.92041,1.21875.22005.47397.33008,1.00293.33008,1.58694,0,1.01562-.28989,1.85983-.86964,2.53271-.57976.67285-1.44937,1.24625-2.60889,1.72021.58398.22852,1.11296.50781,1.58691.83789.47397.33008.91196.69824,1.31396,1.10449s.77652.8421,1.12354,1.30762c.347.46548.68977.94794,1.02832,1.44727.68555-.95636,1.20183-2.0101,1.54883-3.16113.347-1.15106.52049-2.35712.52049-3.61816,0-.32162-.01904-.62421-.05713-.90771-.03809-.28354-.09097-.56494-.15868-.84424h2.01855c.0677.27927.10791.54376.12059.79343.01271.24969.02751.54803.04443.89502,0,.7702-.08041,1.54462-.24121,2.32324-.16081.77866-.37663,1.53403-.64746,2.26611-.27084.73212-.58611,1.42822-.94582,2.08838-.3597.66016-.73843,1.26532-1.13623,1.81546.29622.40625.56706.75958.8125,1.06003.24545.30048.493.55225.74268.75537s.50783.35333.77443.45068c.2666.09732.56915.14597.90771.14597.25391,0,.51205-.03387.77441-.10156.26237-.06772.5332-.15234.81252-.25391v1.92969c-.30469.11847-.62419.20737-.9585.2666s-.66228.08887-.98389.08887h0M123.22136,155.28928c.64322,0,1.23567-.06982,1.77733-.20947.54167-.13968,1.04103-.32584,1.49806-.55862.45703-.23273.87173-.50357,1.24413-.81247.37241-.3089.71094-.63263,1.01562-.97119-.51627-.80402-.99236-1.49173-1.42822-2.06302-.43588-.57129-.87598-1.06427-1.32031-1.47897-.44432-.41473-.91829-.7702-1.42188-1.06641-.50359-.29623-1.08545-.57129-1.74561-.82523-.5332.21161-1.02409.44647-1.47266.70459-.44856.25815-.83578.56284-1.16162.91406-.32585.35126-.58186.75961-.76807,1.22513-.18619.46548-.2793,1.01138-.2793,1.6377,0,.5755.10579,1.08334.31738,1.52344s.50146.80615.86964,1.09811c.36815.29202.79768.51205,1.28857.66016.49089.14813,1.01985.22217,1.58691.22217h0M126.39517,142.32736c0-.42316-.07828-.78287-.23486-1.0791-.15657-.2962-.35547-.54166-.59666-.7363-.24123-.19467-.50993-.33643-.80615-.42532-.29622-.08884-.58823-.1333-.87598-.1333-.82942,0-1.4917.2243-1.98682.67288-.49512.44855-.7469,1.05792-.75537,1.82812,0,.34698.0529.67285.15869.97754s.25389.58823.44432.85059.41261.49512.6665.69821c.25391.20312.52475.37665.81252.52054,1.06641-.37241,1.86197-.80618,2.3867-1.3013.52475-.49512.78711-1.11929.78711-1.87256"/>
  <path class="l" d="M159.90451,156.80002h-2.36133l-1.92967-5.10352h-7.71875l-1.81543,5.10352h-2.37402l6.98242-18.20508h2.20898l7.00781,18.20508h0M154.91525,149.77951l-2.85645-7.75684c-.09309-.25391-.18619-.66016-.2793-1.21875h-.05078c-.08464.51627-.18196.92255-.29199,1.21875l-2.83105,7.75684h6.30956"/>
  <polyline class="l" points="164.71555 156.80002 162.58273 156.80002 162.58273 138.59494 164.71555 138.59494 164.71555 156.80002"/>
  <path class="l" d="M57.6467,156.80002v-18.20508h5.02734c6.41537,0,9.62305,2.95801,9.62305,8.87402,0,2.80991-.89079,5.06754-2.67236,6.77295-1.78157,1.70538-4.16617,2.55811-7.15381,2.55811h-4.82422M59.77951,140.52463v14.34573h2.7168c2.38672,0,4.24448-.63901,5.57326-1.91699,1.32877-1.27798,1.99316-3.08917,1.99316-5.43359,0-4.66342-2.47981-6.99515-7.43945-6.99515h-2.84375"/>
  <path class="l" d="M84.89906,156.80002h-2.08203v-2.03125h-.05078c-.90559,1.55731-2.2386,2.33594-3.99902,2.33594-1.29492,0-2.30843-.34277-3.04053-1.02832s-1.09816-1.59537-1.09816-2.72949c0-2.42905,1.43036-3.84247,4.29102-4.24023l3.89746-.5459c0-2.20898-.8929-3.31348-2.67871-3.31348-1.56575,0-2.97917.5332-4.24023,1.59961v-2.13281c1.278-.81247,2.75066-1.21875,4.41797-1.21875,3.05534,0,4.58301,1.61655,4.58301,4.84961v8.45508h0M82.81705,150.22385l-3.13574.43161c-.96484.13544-1.69272.37451-2.18359.71729-.49089.34277-.73634.95004-.73634,1.82178,0,.63477.22641,1.15314.67921,1.55518.45279.40201,1.05583.603,1.80908.603,1.03255,0,1.88525-.36182,2.55809-1.08545.67285-.72363,1.00928-1.6398,1.00928-2.74854v-1.29492"/>
  <path class="l" d="M94.83168,156.67307c-.49088.27084-1.13834.40628-1.94238.40628-2.27669,0-3.41502-1.26953-3.41502-3.80859v-7.69336h-2.23438v-1.77737h2.23438v-3.1738l2.08202-.67288v3.84668h3.27539v1.77737h-3.27539v7.32516c0,.87177.14812,1.49384.44434,1.86621.29622.37241.78711.55862,1.47266.55862.52473,0,.97752-.14389,1.35838-.43164v1.77734"/>
  <path class="l" d="M106.89508,156.80002h-2.08202v-2.03125h-.0508c-.90559,1.55731-2.2386,2.33594-3.99902,2.33594-1.29492,0-2.30843-.34277-3.04053-1.02832s-1.09814-1.59537-1.09814-2.72949c0-2.42905,1.43034-3.84247,4.291-4.24023l3.89748-.5459c0-2.20898-.89291-3.31348-2.67873-3.31348-1.56575,0-2.97917.5332-4.24023,1.59961v-2.13281c1.278-.81247,2.75066-1.21875,4.41797-1.21875,3.05534,0,4.58301,1.61655,4.58301,4.84961v8.45508h0M104.81306,150.22385l-3.13576.43161c-.96484.13544-1.6927.37451-2.18359.71729s-.73633.95004-.73633,1.82178c0,.63477.22639,1.15314.6792,1.55518.4528.40201,1.05583.603,1.80908.603,1.03255,0,1.88525-.36182,2.55811-1.08545.67284-.72363,1.00928-1.6398,1.00928-2.74854v-1.29492"/>
  <path class="l" d="M134.13271,157.09201c-.48241,0-.90771-.06558-1.27588-.19678-.36815-.1312-.70882-.31738-1.02197-.55859s-.61572-.53531-.90771-.88235c-.29199-.34698-.5988-.74054-.92041-1.18066-.33853.36395-.72998.71518-1.17432,1.05374-.44434.33853-.93735.63898-1.47902.90137-.54166.26236-1.13411.47186-1.77733.62842-.64323.15656-1.34148.23486-2.09473.23486-.91406,0-1.75195-.11426-2.51367-.34277s-1.41342-.56491-1.95509-1.00928c-.54166-.44434-.96272-.99234-1.26317-1.64404-.30046-.65167-.4507-1.4007-.4507-2.24707,0-1.29492.36816-2.40152,1.10449-3.31982.73634-.9183,1.77734-1.66943,3.12305-2.25345-.25389-.18616-.50781-.40414-.76172-.65381-.25389-.24966-.4803-.5332-.6792-.85059-.1989-.31735-.35971-.66861-.48242-1.05371-.12271-.38507-.18408-.80615-.18408-1.26318,0-.66861.12061-1.26105.36182-1.77737.24121-.51627.57339-.95215.99658-1.30759.42317-.35547.92253-.62421,1.49805-.80618.57553-.18195,1.1976-.27295,1.86621-.27295.66016,0,1.26318.091,1.80908.27295.5459.18198,1.01562.44223,1.40918.78076.39357.33856.70036.74481.92041,1.21875.22005.47397.33008,1.00293.33008,1.58694,0,1.01562-.28989,1.85983-.86964,2.53271-.57976.67285-1.44937,1.24625-2.60889,1.72021.584.22852,1.11296.50781,1.58691.83789.47397.33008.91196.69824,1.31396,1.10449s.77652.8421,1.12354,1.30762c.347.46548.68977.94794,1.02832,1.44727.68555-.95636,1.20183-2.0101,1.54883-3.16113.347-1.15106.52049-2.35712.52049-3.61816,0-.32162-.01904-.62421-.05713-.90771-.03809-.28354-.09097-.56494-.15868-.84424h2.01855c.0677.27927.10791.54376.12059.79343.01271.24969.02751.54803.04443.89502,0,.7702-.0804,1.54462-.24121,2.32324-.16081.77866-.37663,1.53403-.64746,2.26611-.27084.73212-.58611,1.42822-.94582,2.08838-.3597.66016-.73843,1.26532-1.13623,1.81546.29622.40625.56706.75958.8125,1.06003.24545.30048.493.55225.74268.75537.24969.20312.50783.35333.77443.45068.2666.09732.56915.14597.90771.14597.25391,0,.51205-.03387.77441-.10156.26237-.06772.5332-.15234.81252-.25391v1.92969c-.30469.11847-.62419.20737-.9585.2666s-.66228.08887-.98389.08887h0M123.48135,155.28928c.64322,0,1.23567-.06982,1.77733-.20947.54167-.13968,1.04103-.32584,1.49806-.55862.45703-.23273.87173-.50357,1.24413-.81247.37241-.3089.71094-.63263,1.01562-.97119-.51627-.80402-.99236-1.49173-1.42822-2.06302-.43588-.57129-.87598-1.06427-1.32031-1.47897-.44432-.41473-.91829-.7702-1.42188-1.06641-.50359-.29623-1.08545-.57129-1.74561-.82523-.5332.21161-1.02409.44647-1.47266.70459-.44856.25815-.83578.56284-1.16162.91406-.32585.35126-.58186.75961-.76807,1.22513-.18619.46548-.2793,1.01138-.2793,1.6377,0,.5755.10579,1.08334.31738,1.52344s.50146.80615.86964,1.09811c.36815.29202.7977.51205,1.28857.66016.49089.14813,1.01985.22217,1.58691.22217h0M126.65518,142.32736c0-.42316-.07828-.78287-.23486-1.0791-.15657-.2962-.35547-.54166-.59666-.7363-.24123-.19467-.50993-.33643-.80615-.42532-.29622-.08884-.58823-.1333-.87598-.1333-.82942,0-1.4917.2243-1.98682.67288-.49512.44855-.7469,1.05792-.75537,1.82812,0,.34698.0529.67285.15869.97754s.25389.58823.44432.85059.41261.49512.6665.69821c.25391.20312.52475.37665.81252.52054,1.06641-.37241,1.86197-.80618,2.3867-1.3013.52475-.49512.78711-1.11929.78711-1.87256"/>
  <path class="l" d="M160.16451,156.80002h-2.36133l-1.92967-5.10352h-7.71877l-1.81543,5.10352h-2.37402l6.98242-18.20508h2.20898l7.00781,18.20508h0M155.17525,149.77951l-2.85645-7.75684c-.09309-.25391-.18619-.66016-.2793-1.21875h-.05078c-.08464.51627-.18196.92255-.29199,1.21875l-2.83105,7.75684h6.30956"/>
  <polyline class="l" points="164.97552 156.80002 162.84271 156.80002 162.84271 138.59494 164.97552 138.59494 164.97552 156.80002"/>
  <path class="l" d="M57.90671,156.80002v-18.20508h5.02734c6.41537,0,9.62305,2.95801,9.62305,8.87402,0,2.80991-.89079,5.06754-2.67236,6.77295-1.78157,1.70538-4.16617,2.55811-7.15381,2.55811h-4.82422M60.03952,140.52463v14.34573h2.7168c2.38672,0,4.24448-.63901,5.57326-1.91699,1.32877-1.27798,1.99316-3.08917,1.99316-5.43359,0-4.66342-2.47981-6.99515-7.43945-6.99515h-2.84375"/>
  <path class="l" d="M85.15907,156.80002h-2.08203v-2.03125h-.05078c-.90559,1.55731-2.2386,2.33594-3.99902,2.33594-1.29492,0-2.30843-.34277-3.04053-1.02832s-1.09816-1.59537-1.09816-2.72949c0-2.42905,1.43036-3.84247,4.29102-4.24023l3.89746-.5459c0-2.20898-.8929-3.31348-2.67871-3.31348-1.56575,0-2.97917.5332-4.24023,1.59961v-2.13281c1.278-.81247,2.75066-1.21875,4.41797-1.21875,3.05534,0,4.58301,1.61655,4.58301,4.84961v8.45508h0M83.07703,150.22385l-3.13574.43161c-.96484.13544-1.69272.37451-2.18359.71729-.49089.34277-.73634.95004-.73634,1.82178,0,.63477.22641,1.15314.67921,1.55518.45279.40201,1.05583.603,1.80908.603,1.03255,0,1.88525-.36182,2.55809-1.08545.67285-.72363,1.00928-1.6398,1.00928-2.74854v-1.29492"/>
  <path class="l" d="M95.09167,156.67307c-.49088.27084-1.13834.40628-1.94238.40628-2.27669,0-3.41502-1.26953-3.41502-3.80859v-7.69336h-2.23438v-1.77737h2.23438v-3.1738l2.08202-.67288v3.84668h3.27539v1.77737h-3.27539v7.32516c0,.87177.14812,1.49384.44434,1.86621.29622.37241.78711.55862,1.47266.55862.52473,0,.97752-.14389,1.35838-.43164v1.77734"/>
  <path class="l" d="M107.15506,156.80002h-2.08202v-2.03125h-.0508c-.90559,1.55731-2.2386,2.33594-3.99902,2.33594-1.29492,0-2.30843-.34277-3.04053-1.02832s-1.09814-1.59537-1.09814-2.72949c0-2.42905,1.43034-3.84247,4.291-4.24023l3.89748-.5459c0-2.20898-.89291-3.31348-2.67873-3.31348-1.56575,0-2.97916.5332-4.24023,1.59961v-2.13281c1.278-.81247,2.75066-1.21875,4.41797-1.21875,3.05534,0,4.58301,1.61655,4.58301,4.84961v8.45508h0M105.07304,150.22385l-3.13576.43161c-.96484.13544-1.6927.37451-2.18359.71729s-.73633.95004-.73633,1.82178c0,.63477.22639,1.15314.6792,1.55518.4528.40201,1.05583.603,1.80908.603,1.03255,0,1.88525-.36182,2.55811-1.08545.67284-.72363,1.00928-1.6398,1.00928-2.74854v-1.29492"/>
  <path class="l" d="M134.39272,157.09201c-.48242,0-.90773-.06558-1.27588-.19678-.36816-.1312-.70883-.31738-1.02199-.55859s-.61571-.53531-.90771-.88235c-.29199-.34698-.5988-.74054-.92041-1.18066-.33853.36395-.72997.71518-1.17432,1.05374-.44434.33853-.93735.63898-1.479.90137-.54167.26236-1.13412.47186-1.77734.62842-.64323.15656-1.34148.23486-2.09473.23486-.91406,0-1.75195-.11426-2.51367-.34277s-1.41342-.56491-1.95508-1.00928c-.54167-.44434-.96274-.99234-1.26318-1.64404-.30046-.65167-.45068-1.4007-.45068-2.24707,0-1.29492.36815-2.40152,1.10449-3.31982.73633-.9183,1.77733-1.66943,3.12305-2.25345-.25391-.18616-.50783-.40414-.76172-.65381-.25391-.24966-.48032-.5332-.67921-.85059-.1989-.31735-.35971-.66861-.48241-1.05371-.12273-.38507-.1841-.80615-.1841-1.26318,0-.66861.12061-1.26105.36182-1.77737.24123-.51627.57339-.95215.99658-1.30759.42317-.35547.92253-.62421,1.49805-.80618.57553-.18195,1.1976-.27295,1.86621-.27295.66017,0,1.26318.091,1.80908.27295.54591.18198,1.01562.44223,1.40918.78076.39357.33856.70036.74481.92041,1.21875.22005.47397.33008,1.00293.33008,1.58694,0,1.01562-.28989,1.85983-.86964,2.53271-.57976.67285-1.44937,1.24625-2.60889,1.72021.584.22852,1.11296.50781,1.58691.83789.47397.33008.91196.69824,1.31396,1.10449s.77654.8421,1.12354,1.30762c.347.46548.68977.94794,1.02832,1.44727.68555-.95636,1.20183-2.0101,1.54883-3.16113.347-1.15106.52049-2.35712.52049-3.61816,0-.32162-.01904-.62421-.05713-.90771-.03809-.28354-.09097-.56494-.15868-.84424h2.01855c.0677.27927.10791.54376.12059.79343.01271.24969.02751.54803.04443.89502,0,.7702-.0804,1.54462-.24121,2.32324-.16081.77866-.37663,1.53403-.64746,2.26611-.27084.73212-.58611,1.42822-.94582,2.08838-.3597.66016-.73843,1.26532-1.13623,1.81546.29622.40625.56706.75958.8125,1.06003.24545.30048.493.55225.74268.75537.24969.20312.50783.35333.77443.45068.2666.09732.56915.14597.90771.14597.25391,0,.51205-.03387.77441-.10156.26237-.06772.5332-.15234.81252-.25391v1.92969c-.30469.11847-.62419.20737-.9585.2666s-.66228.08887-.98389.08887h0M123.74135,155.28928c.64322,0,1.23567-.06982,1.77733-.20947.54167-.13968,1.04103-.32584,1.49806-.55862.45703-.23273.87173-.50357,1.24414-.81247.37239-.3089.71092-.63263,1.01561-.97119-.51627-.80402-.99236-1.49173-1.42822-2.06302-.43588-.57129-.87598-1.06427-1.32031-1.47897-.44432-.41473-.91829-.7702-1.42188-1.06641-.50359-.29623-1.08545-.57129-1.74561-.82523-.5332.21161-1.02409.44647-1.47266.70459-.44856.25815-.83578.56284-1.16162.91406-.32585.35126-.58186.75961-.76807,1.22513-.18619.46548-.2793,1.01138-.2793,1.6377,0,.5755.10579,1.08334.31738,1.52344s.50146.80615.86964,1.09811c.36815.29202.79768.51205,1.28857.66016.49089.14813,1.01985.22217,1.58691.22217h0M126.91518,142.32736c0-.42316-.07828-.78287-.23486-1.0791-.15657-.2962-.35547-.54166-.59666-.7363-.24123-.19467-.50993-.33643-.80615-.42532-.29622-.08884-.58823-.1333-.87598-.1333-.82942,0-1.4917.2243-1.98682.67288-.49512.44855-.7469,1.05792-.75537,1.82812,0,.34698.0529.67285.15869.97754s.25389.58823.44432.85059.41261.49512.6665.69821c.25391.20312.52475.37665.81252.52054,1.06641-.37241,1.86197-.80618,2.3867-1.3013.52475-.49512.78711-1.11929.78711-1.87256"/>
  <path class="l" d="M160.4245,156.80002h-2.36133l-1.92967-5.10352h-7.71875l-1.81543,5.10352h-2.37402l6.98242-18.20508h2.20898l7.00781,18.20508h0M155.43524,149.77951l-2.85645-7.75684c-.09309-.25391-.18619-.66016-.2793-1.21875h-.05078c-.08464.51627-.18196.92255-.29199,1.21875l-2.83105,7.75684h6.30956"/>
  <polyline class="l" points="165.23552 156.80002 163.10271 156.80002 163.10271 138.59494 165.23552 138.59494 165.23552 156.80002"/>
  <path class="l" d="M71.4785,192.80002h-2.36133l-1.92969-5.10352h-7.71875l-1.81544,5.10352h-2.37401l6.98242-18.20508h2.20898l7.00781,18.20508h0M66.48924,185.77951l-2.85645-7.75684c-.09311-.25391-.1862-.66016-.2793-1.21875h-.0508c-.08463.51627-.18196.92255-.29198,1.21875l-2.83107,7.75684h6.30957"/>
  <polyline class="l" points="82.94186 180.3967 75.2485 191.02267 82.86569 191.02267 82.86569 192.80002 72.18893 192.80002 72.18893 192.15256 79.88229 181.57736 72.91257 181.57736 72.91257 179.79999 82.94186 179.79999 82.94186 180.3967"/>
  <path class="l" d="M96.14113,192.80002h-2.08203v-2.05664h-.05078c-.86328,1.57422-2.20052,2.36133-4.01173,2.36133-3.09766,0-4.64648-1.84506-4.64648-5.53516v-7.76953h2.06935v7.43945c0,2.74219,1.04947,4.11328,3.14842,4.11328,1.01562,0,1.85141-.37451,2.50734-1.12354s.98389-1.7287.98389-2.93896v-7.49026h2.08203v13"/>
  <path class="l" d="M107.09871,181.90744c-.36392-.2793-.88867-.41895-1.57422-.41895-.88867,0-1.63135.41895-2.22803,1.25684s-.89502,1.98047-.89502,3.42773v6.62695h-2.08203v-13h2.08203v2.67871h.05078c.29622-.91406.74902-1.62711,1.3584-2.13916s1.29068-.7681,2.04395-.7681c.54166,0,.95638.05927,1.24413.17776v2.1582"/>
  <path class="l" d="M119.78967,186.82053h-9.17873c.03386,1.44727.42319,2.56445,1.16797,3.35156s1.76889,1.18066,3.07227,1.18066c1.4642,0,2.80989-.48242,4.03711-1.44727v1.95508c-1.14258.82941-2.65332,1.24414-4.53223,1.24414-1.83659,0-3.27963-.59033-4.3291-1.771s-1.57422-2.84161-1.57422-4.98291c0-2.02277.57339-3.67105,1.72021-4.94479,1.1468-1.27377,2.5708-1.91068,4.27196-1.91068s3.01726.55014,3.94824,1.65039c.93098,1.10028,1.39648,2.62793,1.39648,4.58301v1.0918h0M117.65686,185.05588c-.00847-1.20181-.29836-2.13702-.86964-2.80566-.57129-.66861-1.36475-1.00293-2.38037-1.00293-.98177,0-1.81541.35126-2.50098,1.05374-.68555.70248-1.10872,1.62076-1.26953,2.75485h7.02052"/>
  <path class="l" d="M71.73849,192.80002h-2.36133l-1.92969-5.10352h-7.71873l-1.81544,5.10352h-2.37401l6.98242-18.20508h2.20898l7.00781,18.20508h0M66.74924,185.77951l-2.85645-7.75684c-.09311-.25391-.18619-.66016-.2793-1.21875h-.0508c-.08463.51627-.18196.92255-.29198,1.21875l-2.83107,7.75684h6.30957"/>
  <polyline class="l" points="83.20187 180.3967 75.5085 191.02267 83.1257 191.02267 83.1257 192.80002 72.44893 192.80002 72.44893 192.15256 80.14229 181.57736 73.17256 181.57736 73.17256 179.79999 83.20187 179.79999 83.20187 180.3967"/>
  <path class="l" d="M96.40114,192.80002h-2.08203v-2.05664h-.05078c-.86328,1.57422-2.20052,2.36133-4.01173,2.36133-3.09766,0-4.64648-1.84506-4.64648-5.53516v-7.76953h2.06935v7.43945c0,2.74219,1.04947,4.11328,3.14842,4.11328,1.01562,0,1.85141-.37451,2.50734-1.12354s.98389-1.7287.98389-2.93896v-7.49026h2.08203v13"/>
  <path class="l" d="M107.3587,181.90744c-.36392-.2793-.88867-.41895-1.57422-.41895-.88867,0-1.63135.41895-2.22803,1.25684s-.89502,1.98047-.89502,3.42773v6.62695h-2.08203v-13h2.08203v2.67871h.05078c.29622-.91406.74902-1.62711,1.3584-2.13916s1.2907-.7681,2.04395-.7681c.54167,0,.95638.05927,1.24413.17776v2.1582"/>
  <path class="l" d="M120.04967,186.82053h-9.17871c.03384,1.44727.42317,2.56445,1.16795,3.35156s1.76889,1.18066,3.07227,1.18066c1.4642,0,2.80989-.48242,4.03711-1.44727v1.95508c-1.14258.82941-2.65332,1.24414-4.53223,1.24414-1.83659,0-3.27963-.59033-4.3291-1.771-1.04948-1.18066-1.57422-2.84161-1.57422-4.98291,0-2.02277.57339-3.67105,1.72021-4.94479,1.1468-1.27377,2.5708-1.91068,4.27196-1.91068s3.01726.55014,3.94824,1.65039c.93098,1.10028,1.39648,2.62793,1.39648,4.58301v1.0918h0M117.91685,185.05588c-.00847-1.20181-.29836-2.13702-.86964-2.80566-.57129-.66861-1.36475-1.00293-2.38037-1.00293-.98177,0-1.81541.35126-2.50096,1.05374s-1.10873,1.62076-1.26955,2.75485h7.02052"/>
  <path class="l" d="M71.9985,192.80002h-2.36133l-1.92969-5.10352h-7.71873l-1.81544,5.10352h-2.37401l6.98242-18.20508h2.20898l7.00781,18.20508h0M67.00925,185.77951l-2.85645-7.75684c-.09311-.25391-.18619-.66016-.2793-1.21875h-.0508c-.08463.51627-.18196.92255-.29198,1.21875l-2.83107,7.75684h6.30957"/>
  <polyline class="l" points="83.46185 180.3967 75.76849 191.02267 83.38568 191.02267 83.38568 192.80002 72.70891 192.80002 72.70891 192.15256 80.40227 181.57736 73.43254 181.57736 73.43254 179.79999 83.46185 179.79999 83.46185 180.3967"/>
  <path class="l" d="M96.66112,192.80002h-2.08203v-2.05664h-.05078c-.86328,1.57422-2.20052,2.36133-4.01173,2.36133-3.09766,0-4.64648-1.84506-4.64648-5.53516v-7.76953h2.06935v7.43945c0,2.74219,1.04947,4.11328,3.14842,4.11328,1.01562,0,1.85141-.37451,2.50734-1.12354s.98389-1.7287.98389-2.93896v-7.49026h2.08203v13"/>
  <path class="l" d="M107.6187,181.90744c-.36392-.2793-.88867-.41895-1.57422-.41895-.88867,0-1.63135.41895-2.22803,1.25684s-.89502,1.98047-.89502,3.42773v6.62695h-2.08203v-13h2.08203v2.67871h.05078c.29622-.91406.74902-1.62711,1.3584-2.13916s1.2907-.7681,2.04395-.7681c.54167,0,.95638.05927,1.24413.17776v2.1582"/>
  <path class="l" d="M120.30966,186.82053h-9.17871c.03384,1.44727.42317,2.56445,1.16795,3.35156.7448.78711,1.76889,1.18066,3.07227,1.18066,1.4642,0,2.80989-.48242,4.03711-1.44727v1.95508c-1.14258.82941-2.65332,1.24414-4.53223,1.24414-1.83659,0-3.27963-.59033-4.3291-1.771s-1.57422-2.84161-1.57422-4.98291c0-2.02277.57339-3.67105,1.72021-4.94479,1.1468-1.27377,2.5708-1.91068,4.27196-1.91068s3.01726.55014,3.94824,1.65039c.93098,1.10028,1.39648,2.62793,1.39648,4.58301v1.0918h0M118.17685,185.05588c-.00847-1.20181-.29836-2.13702-.86964-2.80566-.57129-.66861-1.36475-1.00293-2.38037-1.00293-.98177,0-1.81541.35126-2.50096,1.05374s-1.10873,1.62076-1.26955,2.75485h7.02052"/>
</svg>