<?xml version="1.0" encoding="utf-8"?>
<!-- Generator: Adobe Illustrator 19.1.1, SVG Export Plug-In . SVG Version: 6.00 Build 0)  -->
<svg version="1.1" id="Logos" xmlns="http://www.w3.org/2000/svg" xmlns:xlink="http://www.w3.org/1999/xlink" x="0px" y="0px"
	 viewBox="228 182.9 229.1 93" style="enable-background:new 228 182.9 229.1 93;" xml:space="preserve">
<style type="text/css">
	.st0{fill:#737373;}
	.st1{fill:#F25022;}
	.st2{fill:#7FBA00;}
	.st3{fill:#00A4EF;}
	.st4{fill:#FFB900;}
</style>
<text transform="matrix(1 0 0 1 50.3333 -889.6683)" style="font-family:'SegoePro'; font-size:16px;">Gold Application Development</text>
<text transform="matrix(1 0 0 1 50.3333 -873.6683)" style="font-family:'SegoePro'; font-size:16px;">Gold Collaboration and Content</text>
<text transform="matrix(1 0 0 1 50.3333 -857.6683)" style="font-family:'SegoePro'; font-size:16px;">Gold Data Analytics</text>
<g>
	<g>
		<g>
			<path class="st0" d="M311.1,221.4l-1.3,3.8h-0.1c-0.2-0.8-0.6-2.1-1.3-3.7l-7.1-17.9h-7v28.5h4.6v-17.6c0-1.1,0-2.4,0-3.9
				c0-0.8-0.1-1.4-0.1-1.8h0.1c0.2,1.1,0.5,1.9,0.7,2.4l8.6,20.8h3.2l8.5-21c0.2-0.5,0.4-1.4,0.6-2.2h0.1c-0.1,2.1-0.2,4-0.2,5.1
				V232h4.9v-28.5h-6.7L311.1,221.4z M329.8,211.6h4.8V232h-4.8V211.6z M332.2,202.9c-0.8,0-1.5,0.3-2,0.8c-0.6,0.5-0.8,1.2-0.8,2
				s0.3,1.4,0.8,2c0.6,0.5,1.2,0.8,2,0.8s1.5-0.3,2-0.8c0.6-0.5,0.8-1.2,0.8-2s-0.3-1.4-0.8-2C333.8,203.2,333.1,202.9,332.2,202.9
				 M351.6,211.4c-0.9-0.2-1.8-0.3-2.7-0.3c-2.2,0-4.2,0.5-5.8,1.4c-1.7,1-3,2.3-3.8,3.9c-0.9,1.7-1.3,3.7-1.3,5.9
				c0,2,0.4,3.7,1.3,5.3c0.8,1.5,2,2.8,3.6,3.7c1.5,0.8,3.3,1.3,5.3,1.3c2.3,0,4.2-0.5,5.8-1.4l0,0v-4.4l-0.2,0.1
				c-0.7,0.5-1.5,1-2.3,1.2c-0.8,0.3-1.6,0.4-2.3,0.4c-1.9,0-3.4-0.6-4.5-1.8c-1.1-1.2-1.7-2.8-1.7-4.8c0-2.1,0.6-3.8,1.7-5
				s2.7-1.8,4.5-1.8c1.5,0,3.1,0.5,4.6,1.5l0.2,0.1V212l0,0C353.2,211.9,352.5,211.6,351.6,211.4 M367.4,211.2
				c-1.2,0-2.3,0.4-3.2,1.1c-0.8,0.7-1.4,1.6-1.8,2.8l0,0v-3.6h-4.8v20.4h4.8v-10.4c0-1.8,0.4-3.2,1.2-4.3c0.8-1.1,1.8-1.7,3.1-1.7
				c0.4,0,0.9,0.1,1.4,0.2s0.9,0.3,1.1,0.5l0.2,0.1v-4.8h-0.1C368.9,211.3,368.2,211.2,367.4,211.2 M380.4,211.1c-3.4,0-6,1-7.9,2.9
				c-1.9,2-2.8,4.6-2.8,8c0,3.2,1,5.8,2.8,7.6c1.8,1.8,4.4,2.8,7.5,2.8c3.3,0,5.9-1,7.8-3s2.8-4.6,2.8-7.9c0-3.2-0.9-5.8-2.7-7.7
				C386.2,212,383.6,211.1,380.4,211.1 M384.3,226.8c-0.9,1.1-2.3,1.7-4,1.7s-3.1-0.6-4.1-1.8c-1-1.1-1.5-2.8-1.5-4.9
				c0-2.2,0.5-3.8,1.5-5s2.4-1.8,4.1-1.8s3,0.6,4,1.7s1.5,2.8,1.5,5C385.6,224,385.2,225.7,384.3,226.8 M401.3,220
				c-1.5-0.6-2.5-1.1-2.9-1.5s-0.6-0.9-0.6-1.5s0.2-1.1,0.8-1.5c0.6-0.4,1.2-0.6,2.1-0.6c0.8,0,1.7,0.1,2.5,0.4s1.5,0.6,2.1,1
				l0.2,0.1v-4.5h-0.1c-0.6-0.2-1.3-0.4-2.2-0.6c-0.9-0.1-1.7-0.2-2.4-0.2c-2.3,0-4.2,0.6-5.6,1.8c-1.5,1.1-2.2,2.7-2.2,4.5
				c0,1,0.1,1.8,0.5,2.5s0.8,1.4,1.5,1.9s1.6,1.1,2.9,1.7c1.1,0.5,2,0.8,2.5,1.1c0.5,0.3,0.8,0.6,1.1,0.9c0.2,0.3,0.3,0.7,0.3,1.1
				c0,1.4-1,2-3.1,2c-0.8,0-1.7-0.1-2.7-0.5c-1-0.3-1.9-0.8-2.7-1.4l-0.2-0.1v4.7h0.1c0.7,0.3,1.5,0.6,2.6,0.8c1,0.2,2,0.3,2.8,0.3
				c2.5,0,4.5-0.6,5.9-1.8c1.5-1.2,2.2-2.7,2.2-4.6c0-1.4-0.4-2.6-1.2-3.5C404.5,221.7,403.2,220.8,401.3,220 M419.4,211.1
				c-3.4,0-6,1-7.9,2.9s-2.8,4.6-2.8,8c0,3.2,1,5.8,2.8,7.6c1.8,1.8,4.4,2.8,7.5,2.8c3.3,0,5.9-1,7.8-3s2.8-4.6,2.8-7.9
				c0-3.2-0.9-5.8-2.7-7.7C425.1,212,422.6,211.1,419.4,211.1 M423.2,226.8c-0.9,1.1-2.3,1.7-4,1.7c-1.8,0-3.1-0.6-4.1-1.8
				c-1-1.1-1.5-2.8-1.5-4.9c0-2.2,0.5-3.8,1.5-5s2.4-1.8,4.1-1.8s3,0.6,4,1.7s1.5,2.8,1.5,5C424.6,224,424.1,225.7,423.2,226.8"/>
			<path class="st0" d="M455.2,215.5v-3.9h-4.8v-6h-0.1l-4.6,1.4h-0.1v4.6h-7.2V209c0-1.2,0.3-2.1,0.8-2.7s1.3-0.9,2.2-0.9
				c0.7,0,1.4,0.1,2.1,0.5l0.2,0.1v-4.2h-0.1c-0.7-0.2-1.5-0.4-2.7-0.4c-1.4,0-2.7,0.3-3.8,0.9c-1.1,0.6-2,1.5-2.6,2.6s-1,2.4-1,3.8
				v2.8h-3.4v3.9h3.4v16.5h4.8v-16.4h7.2V226c0,4.3,2,6.5,6.1,6.5c0.7,0,1.4-0.1,2-0.2c0.7-0.1,1.2-0.3,1.5-0.5l0,0v-3.9l-0.2,0.1
				c-0.3,0.2-0.6,0.3-1,0.4s-0.7,0.1-1,0.1c-1,0-1.6-0.2-2.1-0.8c-0.4-0.5-0.7-1.4-0.7-2.6v-9.6H455.2L455.2,215.5z"/>
		</g>
		<path class="st1" d="M228,201.4h25.8v25.8H228V201.4z"/>
		<path class="st2" d="M256.4,201.4h25.8v25.8h-25.8V201.4z"/>
		<path class="st3" d="M228,229.9h25.8v25.8H228V229.9z"/>
		<path class="st4" d="M256.4,229.9h25.8v25.8h-25.8V229.9z"/>
	</g>
	<g>
		<path class="st0" d="M302.9,252.1c-0.8,0.4-1.8,0.6-2.9,0.6c-1.5,0-2.7-0.5-3.6-1.5s-1.4-2.2-1.4-3.8c0-1.7,0.5-3.1,1.5-4.1
			s2.3-1.6,3.9-1.6c1,0,1.8,0.1,2.5,0.4v1.3c-0.8-0.4-1.6-0.6-2.5-0.6c-1.2,0-2.2,0.4-3,1.2s-1.1,1.9-1.1,3.3c0,1.3,0.4,2.3,1.1,3.1
			c0.7,0.8,1.6,1.1,2.8,1.1c1.1,0,2-0.2,2.8-0.7v1.3H302.9z"/>
		<path class="st0" d="M306.1,252.6h-1.2v-11.2h1.2V252.6z"/>
		<path class="st0" d="M311.7,252.8c-1.1,0-2-0.4-2.7-1.1s-1-1.6-1-2.8c0-1.3,0.3-2.3,1-3s1.6-1.1,2.8-1.1c1.1,0,2,0.3,2.6,1
			s0.9,1.7,0.9,2.9c0,1.2-0.3,2.2-1,2.9C313.8,252.4,312.9,252.8,311.7,252.8z M311.8,245.9c-0.8,0-1.4,0.3-1.8,0.8
			s-0.7,1.3-0.7,2.2c0,0.9,0.2,1.6,0.7,2.1s1.1,0.8,1.8,0.8c0.8,0,1.4-0.3,1.8-0.8s0.6-1.2,0.6-2.2c0-0.9-0.2-1.7-0.6-2.2
			C313.2,246.1,312.6,245.9,311.8,245.9z"/>
		<path class="st0" d="M323.6,252.6h-1.2v-1.2l0,0c-0.5,0.9-1.3,1.4-2.3,1.4c-1.8,0-2.7-1.1-2.7-3.2v-4.5h1.2v4.3
			c0,1.6,0.6,2.4,1.8,2.4c0.6,0,1.1-0.2,1.5-0.7c0.4-0.4,0.6-1,0.6-1.7V245h1.2v7.6H323.6z"/>
		<path class="st0" d="M332.5,252.6h-1.2v-1.3l0,0c-0.6,1-1.4,1.5-2.6,1.5c-1,0-1.7-0.3-2.3-1s-0.9-1.6-0.9-2.8c0-1.3,0.3-2.3,0.9-3
			c0.6-0.8,1.5-1.1,2.5-1.1s1.8,0.4,2.3,1.2l0,0v-4.7h1.2v11.2H332.5z M331.2,249.2v-1.1c0-0.6-0.2-1.1-0.6-1.6
			c-0.4-0.4-0.9-0.6-1.5-0.6c-0.7,0-1.3,0.3-1.7,0.8c-0.4,0.5-0.6,1.3-0.6,2.2c0,0.9,0.2,1.6,0.6,2.1s1,0.8,1.6,0.8
			c0.7,0,1.2-0.2,1.6-0.7C331,250.5,331.2,249.9,331.2,249.2z"/>
		<path class="st0" d="M338.7,252.2v-1.5c0.2,0.1,0.4,0.3,0.6,0.4s0.5,0.2,0.7,0.3c0.3,0.1,0.5,0.1,0.8,0.2c0.3,0,0.5,0.1,0.7,0.1
			c0.8,0,1.3-0.1,1.7-0.4c0.4-0.3,0.6-0.7,0.6-1.2c0-0.3-0.1-0.5-0.2-0.7s-0.3-0.4-0.5-0.6s-0.5-0.3-0.8-0.5s-0.6-0.3-1-0.5
			s-0.7-0.4-1-0.6s-0.6-0.4-0.8-0.6c-0.2-0.2-0.4-0.5-0.6-0.8c-0.1-0.3-0.2-0.6-0.2-1c0-0.5,0.1-0.9,0.3-1.3
			c0.2-0.4,0.5-0.7,0.8-0.9c0.3-0.2,0.7-0.4,1.2-0.5c0.4-0.1,0.9-0.2,1.3-0.2c1,0,1.8,0.1,2.3,0.4v1.4c-0.6-0.4-1.4-0.7-2.4-0.7
			c-0.3,0-0.5,0-0.8,0.1s-0.5,0.1-0.7,0.3c-0.2,0.1-0.4,0.3-0.5,0.5s-0.2,0.4-0.2,0.7c0,0.3,0.1,0.5,0.2,0.7s0.3,0.4,0.4,0.5
			s0.4,0.3,0.7,0.5s0.6,0.3,1,0.5s0.7,0.4,1.1,0.6c0.3,0.2,0.6,0.4,0.9,0.7s0.5,0.5,0.6,0.8c0.2,0.3,0.2,0.7,0.2,1
			c0,0.5-0.1,1-0.3,1.3s-0.5,0.7-0.8,0.9c-0.3,0.2-0.7,0.4-1.2,0.5s-0.9,0.2-1.4,0.2c-0.2,0-0.4,0-0.6,0s-0.5-0.1-0.8-0.1
			c-0.3-0.1-0.5-0.1-0.7-0.2C339.1,252.3,338.9,252.3,338.7,252.2z"/>
		<path class="st0" d="M350.3,252.8c-1.1,0-2-0.4-2.7-1.1s-1-1.6-1-2.8c0-1.3,0.3-2.3,1-3s1.6-1.1,2.8-1.1c1.1,0,2,0.3,2.6,1
			s0.9,1.7,0.9,2.9c0,1.2-0.3,2.2-1,2.9C352.3,252.4,351.4,252.8,350.3,252.8z M350.4,245.9c-0.8,0-1.4,0.3-1.8,0.8
			s-0.7,1.3-0.7,2.2c0,0.9,0.2,1.6,0.7,2.1s1.1,0.8,1.8,0.8c0.8,0,1.4-0.3,1.8-0.8s0.6-1.2,0.6-2.2c0-0.9-0.2-1.7-0.6-2.2
			C351.7,246.1,351.1,245.9,350.4,245.9z"/>
		<path class="st0" d="M357.2,252.6H356v-11.2h1.2V252.6z"/>
		<path class="st0" d="M365.8,252.6h-1.2v-1.2l0,0c-0.5,0.9-1.3,1.4-2.3,1.4c-1.8,0-2.7-1.1-2.7-3.2v-4.5h1.2v4.3
			c0,1.6,0.6,2.4,1.8,2.4c0.6,0,1.1-0.2,1.5-0.7c0.4-0.4,0.6-1,0.6-1.7V245h1.2v7.6H365.8z"/>
		<path class="st0" d="M371.7,252.5c-0.3,0.2-0.7,0.2-1.1,0.2c-1.3,0-2-0.7-2-2.2V246h-1.3v-1h1.3v-1.8l1.2-0.4v2.2h1.9v1h-1.9v4.3
			c0,0.5,0.1,0.9,0.3,1.1s0.5,0.3,0.9,0.3c0.3,0,0.6-0.1,0.8-0.3L371.7,252.5L371.7,252.5z"/>
		<path class="st0" d="M374,243.1c-0.2,0-0.4-0.1-0.6-0.2s-0.2-0.3-0.2-0.6s0.1-0.4,0.2-0.6s0.3-0.2,0.6-0.2c0.2,0,0.4,0.1,0.6,0.2
			s0.2,0.3,0.2,0.6c0,0.2-0.1,0.4-0.2,0.6C374.4,243,374.2,243.1,374,243.1z M374.5,252.6h-1.2V245h1.2V252.6z"/>
		<path class="st0" d="M380.2,252.8c-1.1,0-2-0.4-2.7-1.1s-1-1.6-1-2.8c0-1.3,0.3-2.3,1-3s1.6-1.1,2.8-1.1c1.1,0,2,0.3,2.6,1
			s0.9,1.7,0.9,2.9c0,1.2-0.3,2.2-1,2.9C382.2,252.4,381.3,252.8,380.2,252.8z M380.3,245.9c-0.8,0-1.4,0.3-1.8,0.8
			s-0.7,1.3-0.7,2.2c0,0.9,0.2,1.6,0.7,2.1s1.1,0.8,1.8,0.8c0.8,0,1.4-0.3,1.8-0.8s0.6-1.2,0.6-2.2c0-0.9-0.2-1.7-0.6-2.2
			C381.6,246.1,381,245.9,380.3,245.9z"/>
		<path class="st0" d="M392.1,252.6h-1.2v-4.3c0-1.6-0.6-2.4-1.8-2.4c-0.6,0-1.1,0.2-1.5,0.7s-0.6,1-0.6,1.7v4.3h-1.2V245h1.2v1.3
			l0,0c0.6-1,1.4-1.4,2.5-1.4c0.8,0,1.5,0.3,1.9,0.8s0.7,1.3,0.7,2.3V252.6z"/>
		<path class="st0" d="M400,248.6v4h-1.2V242h2.9c1.1,0,2,0.3,2.6,0.8s0.9,1.3,0.9,2.3s-0.3,1.8-1,2.5s-1.6,1-2.8,1L400,248.6
			L400,248.6z M400,243.1v4.3h1.3c0.9,0,1.5-0.2,2-0.6s0.7-0.9,0.7-1.7c0-1.4-0.8-2.1-2.5-2.1H400V243.1z"/>
		<path class="st0" d="M411,246.2c-0.2-0.2-0.5-0.2-0.9-0.2c-0.5,0-0.9,0.2-1.3,0.7c-0.3,0.5-0.5,1.2-0.5,2v3.9h-1.2V245h1.2v1.6
			l0,0c0.2-0.5,0.4-0.9,0.8-1.2s0.8-0.4,1.2-0.4c0.3,0,0.6,0,0.7,0.1L411,246.2L411,246.2z"/>
		<path class="st0" d="M415.3,252.8c-1.1,0-2-0.4-2.7-1.1s-1-1.6-1-2.8c0-1.3,0.3-2.3,1-3s1.6-1.1,2.8-1.1c1.1,0,2,0.3,2.6,1
			s0.9,1.7,0.9,2.9c0,1.2-0.3,2.2-1,2.9C417.3,252.4,416.4,252.8,415.3,252.8z M415.4,245.9c-0.8,0-1.4,0.3-1.8,0.8
			c-0.5,0.5-0.7,1.3-0.7,2.2c0,0.9,0.2,1.6,0.7,2.1s1.1,0.8,1.8,0.8c0.8,0,1.4-0.3,1.8-0.8s0.6-1.2,0.6-2.2c0-0.9-0.2-1.7-0.6-2.2
			C416.8,246.1,416.2,245.9,415.4,245.9z"/>
		<path class="st0" d="M426.9,245l-3,7.6h-1.2l-2.9-7.6h1.3l1.9,5.5c0.1,0.4,0.2,0.8,0.3,1.1l0,0c0-0.4,0.1-0.7,0.2-1l2-5.5h1.4V245
			z"/>
		<path class="st0" d="M428.9,243.1c-0.2,0-0.4-0.1-0.6-0.2s-0.2-0.3-0.2-0.6s0.1-0.4,0.2-0.6s0.3-0.2,0.6-0.2
			c0.2,0,0.4,0.1,0.6,0.2s0.2,0.3,0.2,0.6c0,0.2-0.1,0.4-0.2,0.6C429.3,243,429.1,243.1,428.9,243.1z M429.5,252.6h-1.2V245h1.2
			V252.6z"/>
		<path class="st0" d="M438.4,252.6h-1.2v-1.3l0,0c-0.6,1-1.4,1.5-2.6,1.5c-1,0-1.7-0.3-2.3-1s-0.9-1.6-0.9-2.8c0-1.3,0.3-2.3,0.9-3
			c0.6-0.8,1.5-1.1,2.5-1.1s1.8,0.4,2.3,1.2l0,0v-4.7h1.2v11.2H438.4z M437.2,249.2v-1.1c0-0.6-0.2-1.1-0.6-1.6
			c-0.4-0.4-0.9-0.6-1.5-0.6c-0.7,0-1.3,0.3-1.7,0.8c-0.4,0.5-0.6,1.3-0.6,2.2c0,0.9,0.2,1.6,0.6,2.1s1,0.8,1.6,0.8
			c0.7,0,1.2-0.2,1.6-0.7C436.9,250.5,437.2,249.9,437.2,249.2z"/>
		<path class="st0" d="M446.9,249.1h-5.3c0,0.8,0.2,1.5,0.7,2c0.4,0.5,1,0.7,1.8,0.7c0.9,0,1.6-0.3,2.4-0.8v1.1
			c-0.7,0.5-1.5,0.7-2.6,0.7s-1.9-0.3-2.5-1s-0.9-1.7-0.9-2.9c0-1.2,0.3-2.1,1-2.9s1.5-1.1,2.5-1.1s1.8,0.3,2.3,1s0.8,1.5,0.8,2.7
			v0.5H446.9z M445.7,248.1c0-0.7-0.2-1.2-0.5-1.6s-0.8-0.6-1.4-0.6s-1.1,0.2-1.5,0.6s-0.6,0.9-0.7,1.6H445.7z"/>
		<path class="st0" d="M452.7,246.2c-0.2-0.2-0.5-0.2-0.9-0.2c-0.5,0-0.9,0.2-1.3,0.7s-0.5,1.2-0.5,2v3.9h-1.2V245h1.2v1.6l0,0
			c0.2-0.5,0.4-0.9,0.8-1.2c0.4-0.3,0.8-0.4,1.2-0.4c0.3,0,0.6,0,0.7,0.1L452.7,246.2L452.7,246.2z"/>
	</g>
</g>
</svg>
